<!--
 *              © 2025 Visa
 *
 * Licensed under the Apache License, Version 2.0 (the "License");
 * you may not use this file except in compliance with the License.
 * You may obtain a copy of the License at
 *
 *         http://www.apache.org/licenses/LICENSE-2.0
 *
 * Unless required by applicable law or agreed to in writing, software
 * distributed under the License is distributed on an "AS IS" BASIS,
 * WITHOUT WARRANTIES OR CONDITIONS OF ANY KIND, either express or implied.
 * See the License for the specific language governing permissions and
 * limitations under the License.
 *
 -->
<svg width="18" height="18" viewBox="0 0 18 18" fill="none" xmlns="http://www.w3.org/2000/svg">
<g id="chat-ai" clip-path="url(#clip0_672_2875)">
<g id="name--Chat-ai" opacity="0.01">
<rect width="1.125" height="1.125" transform="translate(6.75 2.25)" fill="#1434CB"/>
</g>
<path id="path-2" d="M10.6875 4.5C10.7284 4.5 10.7683 4.51276 10.8018 4.53613C10.8353 4.55965 10.861 4.59331 10.875 4.63184L11.0664 5.15234C11.2158 5.56098 11.4521 5.93255 11.7598 6.24023C12.0675 6.54796 12.4389 6.78514 12.8477 6.93457L13.3682 7.125C13.4067 7.13898 13.4403 7.16468 13.4639 7.19824C13.4873 7.23174 13.5 7.27161 13.5 7.3125C13.5 7.35335 13.4872 7.39326 13.4639 7.42676C13.4403 7.46032 13.4067 7.48602 13.3682 7.5L12.8477 7.69141C12.439 7.84084 12.0675 8.07708 11.7598 8.38477C11.4521 8.69245 11.2158 9.06398 11.0664 9.47266L10.875 9.99316C10.861 10.0317 10.8353 10.0653 10.8018 10.0889C10.7683 10.1122 10.7284 10.125 10.6875 10.125C10.6466 10.125 10.6067 10.1123 10.5732 10.0889C10.5397 10.0653 10.514 10.0317 10.5 9.99316L10.3096 9.47266C10.1601 9.06393 9.92296 8.69249 9.61523 8.38477C9.30755 8.07714 8.93598 7.8408 8.52734 7.69141L8.00684 7.5C7.96831 7.48602 7.93465 7.46032 7.91113 7.42676C7.88776 7.39326 7.875 7.35335 7.875 7.3125C7.87504 7.27161 7.88767 7.23174 7.91113 7.19824C7.93465 7.16468 7.96831 7.13898 8.00684 7.125L8.52734 6.93457C8.93607 6.78514 9.30751 6.54796 9.61523 6.24023C9.92296 5.93251 10.1601 5.56107 10.3096 5.15234L10.5 4.63184C10.514 4.59331 10.5397 4.55965 10.5732 4.53613C10.6067 4.51267 10.6466 4.50004 10.6875 4.5ZM14.625 0C14.6741 0 14.7225 0.0148221 14.7627 0.0429688C14.803 0.0711954 14.8338 0.111974 14.8506 0.158203L15.0791 0.783203C15.2584 1.27368 15.5428 1.7196 15.9121 2.08887C16.2812 2.45789 16.7266 2.74161 17.2168 2.9209L17.8418 3.15039C17.888 3.16717 17.9288 3.19801 17.957 3.23828C17.985 3.27838 18 3.32611 18 3.375C18 3.42411 17.9852 3.47246 17.957 3.5127C17.9288 3.55297 17.888 3.58381 17.8418 3.60059L17.2168 3.8291C16.7265 4.00842 16.2813 4.29292 15.9121 4.66211C15.5429 5.0313 15.2584 5.47645 15.0791 5.9668L14.8506 6.5918C14.8338 6.63803 14.803 6.6788 14.7627 6.70703C14.7225 6.73518 14.6741 6.75 14.625 6.75C14.5761 6.74995 14.5284 6.73498 14.4883 6.70703C14.448 6.6788 14.4172 6.63803 14.4004 6.5918L14.1709 5.9668C13.9916 5.47662 13.7079 5.03121 13.3389 4.66211C12.9696 4.29284 12.5237 4.00842 12.0332 3.8291L11.4082 3.60059C11.362 3.58381 11.3212 3.55297 11.293 3.5127C11.2648 3.47246 11.25 3.42411 11.25 3.375C11.25 3.32611 11.265 3.27838 11.293 3.23828C11.3212 3.19801 11.362 3.16717 11.4082 3.15039L12.0332 2.9209C12.5237 2.74158 12.9696 2.45812 13.3389 2.08887C13.7081 1.71961 13.9916 1.27365 14.1709 0.783203L14.4004 0.158203C14.4172 0.111974 14.448 0.0711954 14.4883 0.0429688C14.5284 0.0150177 14.5761 4.89827e-05 14.625 0Z" fill="white"/>
<path id="path-1" d="M17.6367 5.70117C17.8719 6.38988 18 7.12876 18 7.89746C18 11.2946 15.5072 14.108 12.2568 14.5957L8.86328 18L7.27246 16.4033L11.25 12.4131C13.6503 12.4131 15.6119 10.5268 15.7432 8.15137L17.6367 5.70117ZM11.209 1.125L9.46387 3.38281H6.75C4.26478 3.38281 2.2501 5.40393 2.25 7.89746C2.25 10.3911 4.26472 12.4131 6.75 12.4131V14.6699C3.02208 14.6699 0 11.6379 0 7.89746C0.000100487 4.15712 3.02214 1.125 6.75 1.125H11.209Z" fill="white"/>
</g>
<defs>
<clipPath id="clip0_672_2875">
<rect width="18" height="18" fill="white"/>
</clipPath>
</defs>
</svg>
