<!--
 *              © 2025 Visa
 *
 * Licensed under the Apache License, Version 2.0 (the "License");
 * you may not use this file except in compliance with the License.
 * You may obtain a copy of the License at
 *
 *         http://www.apache.org/licenses/LICENSE-2.0
 *
 * Unless required by applicable law or agreed to in writing, software
 * distributed under the License is distributed on an "AS IS" BASIS,
 * WITHOUT WARRANTIES OR CONDITIONS OF ANY KIND, either express or implied.
 * See the License for the specific language governing permissions and
 * limitations under the License.
 *
 -->
<svg width="20" height="20" viewBox="0 0 20 20" fill="none" xmlns="http://www.w3.org/2000/svg">
<g id="chat-ai" clip-path="url(#clip0_412_95195)">
<path id="path-2" fill-rule="evenodd" clip-rule="evenodd" d="M16.0976 0.0481876C16.0528 0.0795505 16.0188 0.123931 16.0002 0.175296L15.7458 0.870282C15.5466 1.41525 15.2308 1.91016 14.8205 2.32046C14.4102 2.73076 13.9153 3.04655 13.3703 3.24579L12.6753 3.50016C12.6239 3.5188 12.5796 3.55281 12.5482 3.59755C12.5168 3.6423 12.5 3.69562 12.5 3.75027C12.5 3.80491 12.5168 3.85823 12.5482 3.90298C12.5796 3.94773 12.6239 3.98173 12.6753 4.00038L13.3703 4.25474C13.9153 4.45398 14.4102 4.76977 14.8205 5.18007C15.2308 5.59037 15.5466 6.08528 15.7458 6.63025L16.0002 7.3247C16.0188 7.37607 16.0528 7.42045 16.0976 7.45181C16.1423 7.48318 16.1956 7.5 16.2503 7.5C16.3049 7.5 16.3582 7.48318 16.403 7.45181C16.4477 7.42045 16.4817 7.37607 16.5004 7.3247L16.7547 6.63025C16.954 6.08528 17.2698 5.59037 17.6801 5.18007C18.0904 4.76977 18.5853 4.45398 19.1303 4.25474L19.8247 4.00038C19.8761 3.98173 19.9205 3.94773 19.9518 3.90298C19.9832 3.85823 20 3.80491 20 3.75027C20 3.69562 19.9832 3.6423 19.9518 3.59755C19.9205 3.55281 19.8761 3.5188 19.8247 3.50016L19.1303 3.24579C18.5853 3.04655 18.0904 2.73076 17.6801 2.32046C17.2698 1.91016 16.954 1.41525 16.7547 0.870282L16.5004 0.175296C16.4817 0.123931 16.4477 0.0795505 16.403 0.0481876C16.3582 0.0168247 16.3049 0 16.2503 0C16.1956 0 16.1423 0.0168247 16.0976 0.0481876ZM11.748 5.04016C11.7107 5.06629 11.6823 5.10328 11.6668 5.14608L11.4548 5.72523C11.2888 6.17938 11.0256 6.5918 10.6837 6.93372C10.3418 7.27563 9.92938 7.53879 9.47523 7.70483L8.89608 7.9168C8.85328 7.93233 8.81629 7.96067 8.79016 7.99796C8.76402 8.03525 8.75 8.07969 8.75 8.12522C8.75 8.17076 8.76402 8.21519 8.79016 8.25248C8.81629 8.28977 8.85328 8.31811 8.89608 8.33365L9.47523 8.54562C9.92938 8.71165 10.3418 8.97481 10.6837 9.31672C11.0256 9.65864 11.2888 10.0711 11.4548 10.5252L11.6668 11.1039C11.6823 11.1467 11.7107 11.1837 11.748 11.2098C11.7853 11.236 11.8297 11.25 11.8752 11.25C11.9208 11.25 11.9652 11.236 12.0025 11.2098C12.0398 11.1837 12.0681 11.1467 12.0836 11.1039L12.2956 10.5252C12.4616 10.0711 12.7248 9.65864 13.0667 9.31672C13.4086 8.97481 13.8211 8.71165 14.2752 8.54562L14.8539 8.33365C14.8967 8.31811 14.9337 8.28977 14.9598 8.25248C14.986 8.21519 15 8.17076 15 8.12522C15 8.07969 14.986 8.03525 14.9598 7.99796C14.9337 7.96067 14.8967 7.93233 14.8539 7.9168L14.2752 7.70483C13.8211 7.53879 13.4086 7.27563 13.0667 6.93372C12.7248 6.5918 12.4616 6.17938 12.2956 5.72523L12.0836 5.14608C12.0681 5.10328 12.0398 5.06629 12.0025 5.04016C11.9652 5.01402 11.9208 5 11.8752 5C11.8297 5 11.7853 5.01402 11.748 5.04016Z" fill="#FCC015"/>
<g id="path-1">
<path d="M17.4922 9.05739C17.3463 11.6968 15.167 13.7919 12.5 13.7919L8.08055 18.2263L9.84831 20L13.6184 16.2172C17.2301 15.6754 20 12.5498 20 8.77516C20 7.92097 19.8582 7.10002 19.5968 6.33473L17.4922 9.05739Z" fill="white"/>
<path d="M12.454 1.25H7.5C3.35786 1.25 0 4.61913 0 8.77516C0 12.9312 3.35786 16.3003 7.5 16.3003V13.7919C4.73858 13.7919 2.5 11.5459 2.5 8.77516C2.5 6.00448 4.73858 3.75839 7.5 3.75839H10.515L12.454 1.25Z" fill="white"/>
</g>
</g>
<defs>
<clipPath id="clip0_412_95195">
<rect width="20" height="20" fill="white"/>
</clipPath>
</defs>
</svg>
