<!--
 *              © 2025 Visa
 *
 * Licensed under the Apache License, Version 2.0 (the "License");
 * you may not use this file except in compliance with the License.
 * You may obtain a copy of the License at
 *
 *         http://www.apache.org/licenses/LICENSE-2.0
 *
 * Unless required by applicable law or agreed to in writing, software
 * distributed under the License is distributed on an "AS IS" BASIS,
 * WITHOUT WARRANTIES OR CONDITIONS OF ANY KIND, either express or implied.
 * See the License for the specific language governing permissions and
 * limitations under the License.
 *
 -->
<svg width="304" height="140" viewBox="0 0 304 140" fill="none" xmlns="http://www.w3.org/2000/svg">
    <rect width="304" height="140" fill="var(--palette-default-surface-2, #F0F0F0)" />
    <path fill-rule="evenodd" clip-rule="evenodd"
        d="M181.707 63.293L188.414 70.0001L181.707 76.7072L180.293 75.293L185.586 70.0001L180.293 64.7072L181.707 63.293Z"
        fill="var(--palette-default-active, #1434CB)" />
    <path
        d="M112 75V64.728H108.32V63.576H117.088V64.728H113.424V75H112ZM121.537 74.2C122.241 74.2 122.801 74.1093 123.217 73.928C123.644 73.7467 124.039 73.496 124.401 73.176H124.513L124.401 74.36C124.167 74.5627 123.793 74.76 123.281 74.952C122.78 75.1333 122.161 75.224 121.425 75.224C120.615 75.224 119.905 75.032 119.297 74.648C118.689 74.264 118.215 73.736 117.873 73.064C117.532 72.392 117.361 71.624 117.361 70.76C117.361 69.896 117.527 69.128 117.857 68.456C118.188 67.784 118.641 67.256 119.217 66.872C119.804 66.488 120.465 66.296 121.201 66.296C122.055 66.296 122.743 66.456 123.265 66.776C123.788 67.0853 124.167 67.5227 124.401 68.088C124.636 68.6533 124.753 69.3093 124.753 70.056C124.753 70.1627 124.743 70.2853 124.721 70.424C124.711 70.5627 124.7 70.6853 124.689 70.792H118.721V70.856C118.732 71.8907 118.983 72.7067 119.473 73.304C119.975 73.9013 120.663 74.2 121.537 74.2ZM121.217 67.288C120.513 67.288 119.948 67.5227 119.521 67.992C119.105 68.4613 118.849 69.1227 118.753 69.976H123.505V69.8C123.505 69.032 123.34 68.424 123.009 67.976C122.679 67.5173 122.081 67.288 121.217 67.288ZM127.181 75H125.885L128.861 70.744L125.885 66.52H127.405L129.741 69.928H129.789L132.045 66.52H133.293L130.333 70.808L133.309 75H131.789L129.469 71.64H129.421L127.181 75ZM136.774 72.76C136.774 73.3147 136.886 73.688 137.11 73.88C137.345 74.072 137.638 74.168 137.99 74.168C138.31 74.168 138.566 74.1413 138.758 74.088C138.95 74.024 139.126 73.9547 139.286 73.88H139.398L139.254 74.936C139.137 75.0107 138.934 75.08 138.646 75.144C138.358 75.208 138.049 75.24 137.718 75.24C137.003 75.24 136.449 75.064 136.054 74.712C135.659 74.36 135.462 73.7787 135.462 72.968V67.56H134.006L134.166 66.776L135.462 66.536V64.728L136.774 64.552V66.52H139.206L139.03 67.56H136.774V72.76ZM145.59 72.84C145.59 73.384 145.67 73.7413 145.83 73.912C145.99 74.0827 146.235 74.168 146.566 74.168C146.758 74.168 146.918 74.152 147.046 74.12C147.185 74.088 147.318 74.0453 147.446 73.992H147.542L147.43 75.032C147.291 75.096 147.115 75.144 146.902 75.176C146.699 75.208 146.491 75.224 146.278 75.224C145.627 75.224 145.131 75.0587 144.79 74.728C144.459 74.3973 144.294 73.8213 144.294 73V63.128H145.59V72.84ZM149.878 65.272C149.622 65.272 149.408 65.1973 149.238 65.048C149.067 64.888 148.982 64.68 148.982 64.424C148.982 64.168 149.067 63.96 149.238 63.8C149.408 63.64 149.622 63.56 149.878 63.56C150.134 63.56 150.342 63.64 150.502 63.8C150.672 63.96 150.758 64.168 150.758 64.424C150.758 64.68 150.672 64.888 150.502 65.048C150.342 65.1973 150.134 65.272 149.878 65.272ZM150.518 66.52V75H149.222V67.56H147.766L147.926 66.52H150.518ZM156.662 67.384C156.224 67.384 155.824 67.4907 155.462 67.704C155.11 67.9067 154.827 68.1947 154.614 68.568C154.411 68.9307 154.31 69.352 154.31 69.832V75H153.014V66.52H154.118L154.23 68.04H154.31C154.47 67.592 154.699 67.24 154.998 66.984C155.307 66.728 155.648 66.552 156.022 66.456C156.395 66.3493 156.763 66.296 157.126 66.296C157.99 66.296 158.667 66.536 159.158 67.016C159.659 67.4853 159.91 68.216 159.91 69.208V75H158.598V69.576C158.598 68.8507 158.448 68.3067 158.15 67.944C157.851 67.5707 157.355 67.384 156.662 67.384ZM163.653 63.112V70.712L167.093 66.52H168.405L165.173 70.392L168.773 75H167.237L164.389 71.32L163.653 72.2V75H162.357V63.112H163.653Z"
        fill="var(--palette-default-active, #1434CB)" />
</svg>