<!--
 *              © 2025 Visa
 *
 * Licensed under the Apache License, Version 2.0 (the "License");
 * you may not use this file except in compliance with the License.
 * You may obtain a copy of the License at
 *
 *         http://www.apache.org/licenses/LICENSE-2.0
 *
 * Unless required by applicable law or agreed to in writing, software
 * distributed under the License is distributed on an "AS IS" BASIS,
 * WITHOUT WARRANTIES OR CONDITIONS OF ANY KIND, either express or implied.
 * See the License for the specific language governing permissions and
 * limitations under the License.
 *
 -->
<svg width="304" height="140" viewBox="0 0 304 140" fill="none" xmlns="http://www.w3.org/2000/svg">
    <rect width="304" height="140" fill="var(--palette-default-surface-2, #F0F0F0)" />
    <g clip-path="url(#clip0_4033_10922)">
        <rect x="106" y="51" width="92" height="38" rx="6" fill="var(--palette-default-active, #1434CB)" />
        <rect x="143" y="67" width="40" height="6" rx="3" fill="var(--palette-default-surface-2, #F0F0F0)" />
        <path fill-rule="evenodd" clip-rule="evenodd"
            d="M127.5 62.9691C127.673 63.1081 127.842 63.2646 128 63.4383C128.158 63.2646 128.327 63.1081 128.5 62.9691C129.272 62.3517 130.237 62 131 62C134.132 62 136 64.5314 136 67C136 69.4419 134.474 71.3201 132.909 72.6901C132.112 73.3872 131.259 73.9926 130.498 74.5077C130.239 74.6831 129.997 74.8443 129.771 74.9942L129.771 74.9943C129.31 75.3009 128.919 75.5609 128.6 75.8L128 76.25L127.4 75.8C127.081 75.5609 126.69 75.3009 126.229 74.9942C126.003 74.8443 125.761 74.6831 125.502 74.5077C124.741 73.9926 123.888 73.3872 123.091 72.6901C121.526 71.3201 120 69.4419 120 67C120 64.5314 121.868 62 125 62C125.763 62 126.728 62.3517 127.5 62.9691ZM122 67C122 65.4686 123.132 64 125 64C125.667 64 127.2 64.4 128 66C128.8 64.4 130.333 64 131 64C132.868 64 134 65.4686 134 67C134 68.5581 133.026 69.9299 131.591 71.1849C130.888 71.8003 130.116 72.3512 129.377 72.8516C129.16 72.9982 128.941 73.144 128.726 73.2869L128.726 73.2871L128.726 73.2872C128.475 73.4544 128.229 73.6177 128 73.7741C127.771 73.6178 127.526 73.4545 127.274 73.2874L127.274 73.2873L127.274 73.2872L127.274 73.2871L127.273 73.2867C127.059 73.1438 126.84 72.9981 126.623 72.8516C125.884 72.3512 125.112 71.8003 124.409 71.1849C122.974 69.9299 122 68.5581 122 67Z"
            fill="var(--palette-default-surface-2, #F0F0F0)" />
    </g>
    <defs>
        <clipPath id="clip0_4033_10922">
            <rect width="92" height="38" fill="var(--palette-default-surface-1, white)" transform="translate(106 51)" />
        </clipPath>
    </defs>
</svg>