<!--
 *              © 2025 Visa
 *
 * Licensed under the Apache License, Version 2.0 (the "License");
 * you may not use this file except in compliance with the License.
 * You may obtain a copy of the License at
 *
 *         http://www.apache.org/licenses/LICENSE-2.0
 *
 * Unless required by applicable law or agreed to in writing, software
 * distributed under the License is distributed on an "AS IS" BASIS,
 * WITHOUT WARRANTIES OR CONDITIONS OF ANY KIND, either express or implied.
 * See the License for the specific language governing permissions and
 * limitations under the License.
 *
 -->
<svg width="300" height="140" viewBox="0 0 300 140" fill="none" xmlns="http://www.w3.org/2000/svg">
    <rect width="300" height="140" fill="var(--palette-default-surface-2, #F0F0F0)" />
    <rect x="37.5" y="57" width="225" height="8" rx="4" fill="var(--palette-default-surface-1, white)" />
    <rect x="37.5" y="57" width="154" height="8" rx="4" fill="var(--palette-default-active, #1434CB)" />
    <path
        d="M241.897 80V79.136H243.625V72.752C243.545 72.8 243.401 72.848 243.193 72.896C242.985 72.936 242.757 72.972 242.509 73.004C242.269 73.028 242.057 73.04 241.873 73.04V72.356C242.329 72.332 242.753 72.244 243.145 72.092C243.545 71.932 243.817 71.676 243.961 71.324H244.657V79.136H246.349V80H241.897ZM248.049 71.432H252.501V72.332H248.793L248.613 74.888C248.829 74.8 249.077 74.732 249.357 74.684C249.645 74.628 249.945 74.6 250.257 74.6C251.065 74.6 251.709 74.816 252.189 75.248C252.677 75.68 252.921 76.372 252.921 77.324C252.921 77.868 252.809 78.356 252.585 78.788C252.361 79.212 252.025 79.552 251.577 79.808C251.129 80.056 250.577 80.18 249.921 80.18C249.329 80.18 248.841 80.108 248.457 79.964C248.073 79.82 247.757 79.668 247.509 79.508L247.317 78.44H247.413C247.725 78.688 248.069 78.9 248.445 79.076C248.829 79.244 249.277 79.328 249.789 79.328C250.493 79.328 251.009 79.16 251.337 78.824C251.673 78.488 251.841 77.984 251.841 77.312C251.841 76.696 251.697 76.224 251.409 75.896C251.129 75.56 250.685 75.392 250.077 75.392C249.629 75.392 249.233 75.432 248.889 75.512C248.545 75.592 248.217 75.728 247.905 75.92H247.725L248.049 71.432ZM257.35 73.568C257.35 74.272 257.206 74.836 256.918 75.26C256.638 75.676 256.23 75.884 255.694 75.884C255.158 75.884 254.746 75.676 254.458 75.26C254.178 74.836 254.038 74.272 254.038 73.568C254.038 72.864 254.178 72.304 254.458 71.888C254.746 71.464 255.158 71.252 255.694 71.252C256.23 71.252 256.638 71.464 256.918 71.888C257.206 72.304 257.35 72.864 257.35 73.568ZM255.214 80L260.062 71.432H260.854L256.006 80H255.214ZM254.794 73.568C254.794 74.064 254.862 74.472 254.998 74.792C255.134 75.104 255.366 75.26 255.694 75.26C256.03 75.26 256.266 75.104 256.402 74.792C256.538 74.472 256.606 74.064 256.606 73.568C256.606 73.072 256.538 72.668 256.402 72.356C256.266 72.036 256.03 71.876 255.694 71.876C255.366 71.876 255.134 72.036 254.998 72.356C254.862 72.668 254.794 73.072 254.794 73.568ZM262.054 77.864C262.054 78.568 261.91 79.132 261.622 79.556C261.342 79.972 260.934 80.18 260.398 80.18C259.862 80.18 259.45 79.972 259.162 79.556C258.882 79.132 258.742 78.568 258.742 77.864C258.742 77.16 258.882 76.6 259.162 76.184C259.45 75.76 259.862 75.548 260.398 75.548C260.934 75.548 261.342 75.76 261.622 76.184C261.91 76.6 262.054 77.16 262.054 77.864ZM259.486 77.864C259.486 78.36 259.554 78.768 259.69 79.088C259.826 79.4 260.062 79.556 260.398 79.556C260.726 79.556 260.958 79.4 261.094 79.088C261.23 78.768 261.298 78.36 261.298 77.864C261.298 77.368 261.23 76.964 261.094 76.652C260.958 76.332 260.726 76.172 260.398 76.172C260.062 76.172 259.826 76.332 259.69 76.652C259.554 76.964 259.486 77.368 259.486 77.864Z"
        fill="#4A4A4A" />
</svg>