<!--
 *              © 2025 Visa
 *
 * Licensed under the Apache License, Version 2.0 (the "License");
 * you may not use this file except in compliance with the License.
 * You may obtain a copy of the License at
 *
 *         http://www.apache.org/licenses/LICENSE-2.0
 *
 * Unless required by applicable law or agreed to in writing, software
 * distributed under the License is distributed on an "AS IS" BASIS,
 * WITHOUT WARRANTIES OR CONDITIONS OF ANY KIND, either express or implied.
 * See the License for the specific language governing permissions and
 * limitations under the License.
 *
 -->
<svg width="304" height="140" viewBox="0 0 304 140" fill="none" xmlns="http://www.w3.org/2000/svg">
    <rect width="304" height="140" fill="var(--palette-default-surface-2, #F0F0F0)" />
    <path fill-rule="evenodd" clip-rule="evenodd"
        d="M65.0642 85.082C65.536 85.082 65.9184 84.7002 65.9184 84.2292V73.9959C65.9184 73.525 65.536 73.1432 65.0642 73.1432C64.5925 73.1432 64.2101 73.525 64.2101 73.9959V84.2292C64.2101 84.7002 64.5925 85.082 65.0642 85.082ZM75.918 83.6454L71.3971 79.1318L75.918 74.6181C76.2515 74.2851 76.2515 73.7452 75.918 73.4121C75.5844 73.0791 75.0436 73.0791 74.71 73.4121L69.5851 78.5288C69.2516 78.8618 69.2516 79.4017 69.5851 79.7348L74.71 84.8514C75.0436 85.1844 75.5844 85.1844 75.918 84.8514C76.2515 84.5184 76.2515 83.9784 75.918 83.6454Z"
        fill="var(--palette-default-text, black)" fill-opacity="0.2" />
    <path fill-rule="evenodd" clip-rule="evenodd"
        d="M105.282 73.3933L106.49 74.6013L101.969 79.1222L106.49 83.6431L105.282 84.851L99.5532 79.1222L105.282 73.3933Z"
        fill="var(--palette-default-active, #1434CB)" />
    <path
        d="M135.789 83.6222V82.1992H137.415V76.8779C137.328 76.9257 137.188 76.9735 136.997 77.0214C136.813 77.0692 136.606 77.1091 136.375 77.1409C136.144 77.1728 135.917 77.1888 135.693 77.1888V76.1006C136.196 76.0687 136.642 75.9651 137.033 75.7897C137.423 75.6063 137.682 75.3432 137.81 75.0004H139.185V82.1992H140.811V83.6222H135.789Z"
        fill="var(--palette-default-active, #1434CB)" />
    <rect x="124.927" y="65.7785" width="26.4995" height="26.6873" rx="13.2498"
        stroke="var(--palette-default-active, #1434CB)" stroke-width="0.854147" />
    <path
        d="M171.831 75.7658C171.512 75.7658 171.173 75.8295 170.814 75.9571C170.455 76.0767 170.136 76.256 169.857 76.4952H169.75L169.834 75.4907C170.136 75.2994 170.475 75.1559 170.85 75.0602C171.233 74.9566 171.595 74.9048 171.938 74.9048C172.512 74.9048 173.002 74.9805 173.409 75.132C173.816 75.2835 174.126 75.5386 174.342 75.8973C174.565 76.2481 174.681 76.7304 174.689 77.3442C174.689 77.7747 174.617 78.1773 174.473 78.552C174.338 78.9267 174.158 79.2735 173.935 79.5923C173.72 79.9033 173.497 80.1823 173.265 80.4294C173.106 80.6048 172.895 80.824 172.632 81.0871C172.377 81.3422 172.094 81.6133 171.783 81.9002C171.48 82.1872 171.177 82.4623 170.874 82.7254H174.892L174.808 83.6222H169.666V82.8091C170.136 82.3706 170.539 81.9959 170.874 81.685C171.209 81.3661 171.504 81.0791 171.759 80.824C172.014 80.5689 172.257 80.3098 172.488 80.0467C172.791 79.696 173.05 79.2934 173.265 78.839C173.489 78.3846 173.6 77.9142 173.6 77.4279C173.6 76.8141 173.453 76.3836 173.158 76.1365C172.871 75.8893 172.428 75.7658 171.831 75.7658Z"
        fill="var(--palette-default-active, #1434CB)" />
    <path
        d="M208.985 81.1349C208.985 81.7966 208.849 82.3228 208.578 82.7134C208.307 83.104 207.945 83.383 207.49 83.5505C207.044 83.7179 206.55 83.8016 206.007 83.8016C205.744 83.8016 205.473 83.7737 205.194 83.7179C204.915 83.6621 204.656 83.5903 204.417 83.5026C204.178 83.407 203.987 83.3073 203.843 83.2037L203.688 82.1872H203.783C204.078 82.4503 204.429 82.6416 204.836 82.7612C205.242 82.8808 205.605 82.9406 205.924 82.9406C206.53 82.9406 207.012 82.8051 207.371 82.534C207.729 82.263 207.909 81.7807 207.909 81.0871C207.909 80.6965 207.817 80.3895 207.634 80.1663C207.458 79.9351 207.223 79.7717 206.928 79.676C206.633 79.5804 206.31 79.5326 205.96 79.5326H205.326L205.242 78.8031H205.816C206.398 78.8031 206.829 78.6397 207.108 78.3128C207.395 77.986 207.538 77.5914 207.538 77.129C207.538 76.6746 207.411 76.3358 207.155 76.1125C206.908 75.8814 206.494 75.7658 205.912 75.7658C205.513 75.7658 205.134 75.8415 204.776 75.993C204.417 76.1444 204.134 76.3318 203.927 76.555H203.831L203.963 75.5625C204.202 75.3632 204.509 75.2037 204.883 75.0842C205.266 74.9646 205.657 74.9048 206.055 74.9048C206.844 74.9048 207.462 75.0722 207.909 75.407C208.363 75.7418 208.59 76.276 208.59 77.0094C208.59 77.408 208.515 77.7428 208.363 78.0139C208.212 78.2849 208.012 78.5042 207.765 78.6716C207.518 78.839 207.251 78.9626 206.964 79.0423V79.0781C207.307 79.126 207.63 79.2296 207.933 79.3891C208.244 79.5405 208.495 79.7598 208.686 80.0467C208.885 80.3258 208.985 80.6885 208.985 81.1349Z"
        fill="var(--palette-default-active, #1434CB)" />
    <path fill-rule="evenodd" clip-rule="evenodd"
        d="M239.382 73.3935L245.111 79.1223L239.382 84.8512L238.174 83.6432L242.695 79.1223L238.175 74.6014L239.382 73.3935Z"
        fill="var(--palette-default-active, #1434CB)" />
    <g clip-path="url(#clip0_2887_84884)">
        <path fill-rule="evenodd" clip-rule="evenodd"
            d="M280.461 72.289V85.9554H278.752L278.752 72.289H280.461ZM268.753 73.7471L274.128 79.1222L268.753 84.4972L269.961 85.7052L276.544 79.1222L269.961 72.5392L268.753 73.7471Z"
            fill="var(--palette-default-active, #1434CB)" />
    </g>
    <defs>
        <clipPath id="clip0_2887_84884">
            <rect width="13.6663" height="13.6663" fill="var(--palette-default-surface-1, white)"
                transform="translate(267.642 72.289)" />
        </clipPath>
    </defs>
</svg>