<!--
 *              © 2025 Visa
 *
 * Licensed under the Apache License, Version 2.0 (the "License");
 * you may not use this file except in compliance with the License.
 * You may obtain a copy of the License at
 *
 *         http://www.apache.org/licenses/LICENSE-2.0
 *
 * Unless required by applicable law or agreed to in writing, software
 * distributed under the License is distributed on an "AS IS" BASIS,
 * WITHOUT WARRANTIES OR CONDITIONS OF ANY KIND, either express or implied.
 * See the License for the specific language governing permissions and
 * limitations under the License.
 *
 -->
<svg width="300" height="140" viewBox="0 0 300 140" fill="none" xmlns="http://www.w3.org/2000/svg">
    <rect width="300" height="140" fill="var(--palette-default-surface-2, #F0F0F0)" />
    <rect x="76.5" y="41.5" width="147" height="57" rx="3.5" fill="var(--palette-default-surface-1, white)" />
    <path
        d="M104.864 83H100.352L108.288 60.152H113.632L121.312 83H116.096L114.336 77.272H106.656L104.864 83ZM107.584 74.136H113.44L110.656 64.984H110.432L107.584 74.136ZM135.147 80.056C136.789 80.056 137.931 80.408 138.571 81.112C139.232 81.7947 139.563 82.7973 139.563 84.12C139.563 85.7627 138.837 87.0747 137.387 88.056C135.936 89.0373 133.611 89.528 130.411 89.528C128.832 89.528 127.403 89.4 126.123 89.144C124.864 88.888 123.861 88.5573 123.115 88.152L122.859 84.984H123.147C123.531 85.2827 124.096 85.5707 124.843 85.848C125.589 86.1253 126.443 86.3493 127.403 86.52C128.384 86.712 129.408 86.808 130.475 86.808C132.416 86.808 133.781 86.648 134.571 86.328C135.381 86.008 135.787 85.5493 135.787 84.952C135.787 84.056 135.264 83.608 134.219 83.608H127.979C126.656 83.608 125.589 83.3413 124.779 82.808C123.968 82.2533 123.563 81.336 123.563 80.056C123.563 79.2027 123.819 78.4987 124.331 77.944C124.864 77.368 125.525 76.9947 126.315 76.824V76.632C125.461 76.0987 124.8 75.3947 124.331 74.52C123.861 73.6453 123.627 72.664 123.627 71.576C123.627 70.36 123.915 69.2933 124.491 68.376C125.088 67.4373 125.909 66.7013 126.955 66.168C128 65.6347 129.227 65.368 130.635 65.368C131.723 65.368 132.693 65.5173 133.547 65.816C134.4 66.1147 135.136 66.5413 135.755 67.096H135.947C136.181 66.5627 136.629 66.1573 137.291 65.88C137.973 65.6027 138.677 65.464 139.403 65.464H140.843L140.619 68.888L136.971 68.44L136.907 68.568C137.419 69.464 137.675 70.4667 137.675 71.576C137.675 72.792 137.387 73.8693 136.811 74.808C136.235 75.7253 135.413 76.4507 134.347 76.984C133.301 77.5173 132.064 77.784 130.635 77.784C130.101 77.784 129.621 77.7627 129.195 77.72C128.789 77.6773 128.491 77.656 128.299 77.656C127.296 77.656 126.795 78.04 126.795 78.808C126.795 79.64 127.307 80.056 128.331 80.056H135.147ZM130.635 68.088C129.696 68.088 128.96 68.408 128.427 69.048C127.893 69.6667 127.627 70.5093 127.627 71.576C127.627 72.6427 127.893 73.496 128.427 74.136C128.96 74.7547 129.696 75.064 130.635 75.064C131.595 75.064 132.341 74.7547 132.875 74.136C133.408 73.496 133.675 72.6427 133.675 71.576C133.675 70.5093 133.408 69.6667 132.875 69.048C132.341 68.408 131.595 68.088 130.635 68.088ZM149.001 83V79.192H153.353V64.952C153.118 65.08 152.745 65.208 152.233 65.336C151.742 65.464 151.188 65.5707 150.569 65.656C149.95 65.7413 149.342 65.784 148.745 65.784V62.872C150.089 62.7867 151.284 62.5093 152.329 62.04C153.374 61.5493 154.068 60.8453 154.409 59.928H158.089V79.192H162.441V83H149.001ZM170.536 63.48C169.79 63.48 168.947 63.64 168.008 63.96C167.091 64.2587 166.248 64.7173 165.48 65.336H165.16L165.384 61.336C165.918 60.9733 166.536 60.6747 167.24 60.44C167.944 60.184 168.659 59.992 169.384 59.864C170.131 59.736 170.824 59.672 171.464 59.672C174.003 59.672 175.998 60.2053 177.448 61.272C178.899 62.3173 179.635 64.0667 179.656 66.52C179.656 67.6933 179.486 68.728 179.144 69.624C178.803 70.4987 178.355 71.288 177.8 71.992C177.267 72.696 176.702 73.3573 176.104 73.976C175.571 74.5093 174.782 75.2347 173.736 76.152C172.691 77.0693 171.539 78.008 170.28 78.968H180.072L179.784 83H165V79.512C166.238 78.4667 167.294 77.5707 168.168 76.824C169.064 76.056 169.843 75.3627 170.504 74.744C171.166 74.1253 171.763 73.496 172.296 72.856C173.022 72.024 173.598 71.1493 174.024 70.232C174.451 69.3147 174.664 68.3013 174.664 67.192C174.664 65.8053 174.302 64.8453 173.576 64.312C172.872 63.7573 171.859 63.48 170.536 63.48ZM198.229 76.216C198.229 78.0293 197.845 79.4693 197.077 80.536C196.331 81.5813 195.317 82.3387 194.037 82.808C192.779 83.256 191.349 83.48 189.749 83.48C189.024 83.48 188.256 83.4053 187.445 83.256C186.656 83.1067 185.92 82.9147 185.237 82.68C184.555 82.424 184.021 82.1573 183.637 81.88L183.093 77.848H183.349C184.181 78.5307 185.141 79.0107 186.229 79.288C187.339 79.544 188.309 79.672 189.141 79.672C190.379 79.672 191.371 79.4053 192.117 78.872C192.885 78.3173 193.269 77.336 193.269 75.928C193.269 74.648 192.885 73.784 192.117 73.336C191.371 72.888 190.389 72.664 189.173 72.664H187.413L187.093 69.688H188.789C189.92 69.688 190.816 69.4 191.477 68.824C192.16 68.248 192.501 67.4267 192.501 66.36C192.501 65.336 192.224 64.6 191.669 64.152C191.115 63.704 190.219 63.48 188.981 63.48C187.787 63.48 186.741 63.6613 185.845 64.024C184.971 64.3867 184.245 64.8453 183.669 65.4H183.413L183.957 61.4C184.64 60.8667 185.525 60.4507 186.613 60.152C187.701 59.832 188.789 59.672 189.877 59.672C192.203 59.672 194.027 60.1307 195.349 61.048C196.672 61.9653 197.333 63.416 197.333 65.4C197.333 66.4027 197.109 67.256 196.661 67.96C196.235 68.6427 195.68 69.1973 194.997 69.624C194.315 70.0507 193.589 70.3707 192.821 70.584V70.712C193.803 70.8827 194.699 71.1813 195.509 71.608C196.32 72.0133 196.971 72.5893 197.461 73.336C197.973 74.0827 198.229 75.0427 198.229 76.216Z"
        fill="var(--palette-default-active, #1434CB)" />
    <rect x="76.5" y="41.5" width="147" height="57" rx="3.5" stroke="var(--palette-default-surface-2, #F0F0F0)" />
    <g style="mix-blend-mode:multiply" opacity="0.75">
        <path d="M88 60H212" stroke="#D65151" stroke-width="0.5" />
    </g>
    <g style="mix-blend-mode:multiply" opacity="0.75">
        <path d="M88 66H212" stroke="#D65151" stroke-width="0.5" stroke-dasharray="2 2" />
    </g>
    <g style="mix-blend-mode:multiply" opacity="0.75">
        <path d="M88 83H212" stroke="#D65151" stroke-width="0.5" />
    </g>
</svg>