<!--
 *              © 2025 Visa
 *
 * Licensed under the Apache License, Version 2.0 (the "License");
 * you may not use this file except in compliance with the License.
 * You may obtain a copy of the License at
 *
 *         http://www.apache.org/licenses/LICENSE-2.0
 *
 * Unless required by applicable law or agreed to in writing, software
 * distributed under the License is distributed on an "AS IS" BASIS,
 * WITHOUT WARRANTIES OR CONDITIONS OF ANY KIND, either express or implied.
 * See the License for the specific language governing permissions and
 * limitations under the License.
 *
 -->
<svg width="274" height="140" viewBox="0 0 274 140" fill="none" xmlns="http://www.w3.org/2000/svg">
    <rect width="274" height="140" fill="var(--palette-default-surface-2, #F0F0F0)" />
    <path
        d="M48.162 76V66.004H49.856V74.656H54.476V76H48.162ZM59.2323 75.048C59.8296 75.048 60.3149 74.978 60.6883 74.838C61.0616 74.6887 61.4023 74.4833 61.7103 74.222H61.8223L61.7103 75.454C61.4956 75.6407 61.1596 75.8133 60.7023 75.972C60.2543 76.1213 59.7083 76.196 59.0643 76.196C58.3176 76.196 57.6643 76.028 57.1043 75.692C56.5536 75.3467 56.1243 74.88 55.8163 74.292C55.5083 73.6947 55.3543 73.018 55.3543 72.262C55.3543 71.5153 55.4989 70.848 55.7883 70.26C56.0869 69.6627 56.4976 69.1913 57.0203 68.846C57.5429 68.5007 58.1449 68.328 58.8263 68.328C59.6103 68.328 60.2356 68.4773 60.7023 68.776C61.1689 69.0653 61.5049 69.4667 61.7103 69.98C61.9156 70.484 62.0183 71.0673 62.0183 71.73C62.0183 71.814 62.0089 71.9213 61.9903 72.052C61.9809 72.1827 61.9716 72.2947 61.9623 72.388H56.9643V72.444C56.9829 73.256 57.1883 73.8953 57.5803 74.362C57.9723 74.8193 58.5229 75.048 59.2323 75.048ZM58.8543 69.406C58.2943 69.406 57.8603 69.5927 57.5523 69.966C57.2443 70.3393 57.0576 70.862 56.9923 71.534H60.5903V71.338C60.5903 70.75 60.4549 70.2833 60.1843 69.938C59.9229 69.5833 59.4796 69.406 58.8543 69.406ZM64.4929 68.538L66.4669 74.264H66.5369L68.4829 68.538H69.9109L67.1809 76H65.5569L62.8269 68.538H64.4929ZM74.5311 75.048C75.1284 75.048 75.6138 74.978 75.9871 74.838C76.3604 74.6887 76.7011 74.4833 77.0091 74.222H77.1211L77.0091 75.454C76.7944 75.6407 76.4584 75.8133 76.0011 75.972C75.5531 76.1213 75.0071 76.196 74.3631 76.196C73.6164 76.196 72.9631 76.028 72.4031 75.692C71.8524 75.3467 71.4231 74.88 71.1151 74.292C70.8071 73.6947 70.6531 73.018 70.6531 72.262C70.6531 71.5153 70.7978 70.848 71.0871 70.26C71.3858 69.6627 71.7964 69.1913 72.3191 68.846C72.8418 68.5007 73.4438 68.328 74.1251 68.328C74.9091 68.328 75.5344 68.4773 76.0011 68.776C76.4678 69.0653 76.8038 69.4667 77.0091 69.98C77.2144 70.484 77.3171 71.0673 77.3171 71.73C77.3171 71.814 77.3078 71.9213 77.2891 72.052C77.2798 72.1827 77.2704 72.2947 77.2611 72.388H72.2631V72.444C72.2818 73.256 72.4871 73.8953 72.8791 74.362C73.2711 74.8193 73.8218 75.048 74.5311 75.048ZM74.1531 69.406C73.5931 69.406 73.1591 69.5927 72.8511 69.966C72.5431 70.3393 72.3564 70.862 72.2911 71.534H75.8891V71.338C75.8891 70.75 75.7538 70.2833 75.4831 69.938C75.2218 69.5833 74.7784 69.406 74.1531 69.406ZM80.4184 73.914C80.4184 74.3527 80.4791 74.642 80.6004 74.782C80.7311 74.9127 80.9364 74.978 81.2164 74.978C81.3751 74.978 81.5151 74.964 81.6364 74.936C81.7578 74.908 81.8744 74.866 81.9864 74.81H82.0844L81.9304 76.014C81.8184 76.07 81.6551 76.112 81.4404 76.14C81.2258 76.1773 81.0251 76.196 80.8384 76.196C80.1851 76.196 79.6951 76.0373 79.3684 75.72C79.0418 75.4027 78.8784 74.866 78.8784 74.11V65.598H80.4184V73.914ZM85.6228 76V74.656H87.5828V67.824C87.4802 67.88 87.3122 67.936 87.0788 67.992C86.8548 68.0387 86.6028 68.0807 86.3228 68.118C86.0428 68.1553 85.7862 68.174 85.5528 68.174V67.138C86.1128 67.11 86.6215 66.998 87.0788 66.802C87.5362 66.5967 87.8442 66.2933 88.0028 65.892H89.2208V74.656H91.1528V76H85.6228Z"
        fill="var(--palette-default-active, #1434CB)" />
    <path d="M47 77.512H91.4748V78.184H47V77.512Z" fill="var(--palette-default-active, #1434CB)" />
    <path d="M104.438 66.004L100.84 77.582H99.874L103.486 66.004H104.438Z" fill="var(--palette-default-text, black)"
        fill-opacity="0.5" />
    <path
        d="M114.162 76V66.004H115.856V74.656H120.476V76H114.162ZM125.232 75.048C125.83 75.048 126.315 74.978 126.688 74.838C127.062 74.6887 127.402 74.4833 127.71 74.222H127.822L127.71 75.454C127.496 75.6407 127.16 75.8133 126.702 75.972C126.254 76.1213 125.708 76.196 125.064 76.196C124.318 76.196 123.664 76.028 123.104 75.692C122.554 75.3467 122.124 74.88 121.816 74.292C121.508 73.6947 121.354 73.018 121.354 72.262C121.354 71.5153 121.499 70.848 121.788 70.26C122.087 69.6627 122.498 69.1913 123.02 68.846C123.543 68.5007 124.145 68.328 124.826 68.328C125.61 68.328 126.236 68.4773 126.702 68.776C127.169 69.0653 127.505 69.4667 127.71 69.98C127.916 70.484 128.018 71.0673 128.018 71.73C128.018 71.814 128.009 71.9213 127.99 72.052C127.981 72.1827 127.972 72.2947 127.962 72.388H122.964V72.444C122.983 73.256 123.188 73.8953 123.58 74.362C123.972 74.8193 124.523 75.048 125.232 75.048ZM124.854 69.406C124.294 69.406 123.86 69.5927 123.552 69.966C123.244 70.3393 123.058 70.862 122.992 71.534H126.59V71.338C126.59 70.75 126.455 70.2833 126.184 69.938C125.923 69.5833 125.48 69.406 124.854 69.406ZM130.493 68.538L132.467 74.264H132.537L134.483 68.538H135.911L133.181 76H131.557L128.827 68.538H130.493ZM140.531 75.048C141.128 75.048 141.614 74.978 141.987 74.838C142.36 74.6887 142.701 74.4833 143.009 74.222H143.121L143.009 75.454C142.794 75.6407 142.458 75.8133 142.001 75.972C141.553 76.1213 141.007 76.196 140.363 76.196C139.616 76.196 138.963 76.028 138.403 75.692C137.852 75.3467 137.423 74.88 137.115 74.292C136.807 73.6947 136.653 73.018 136.653 72.262C136.653 71.5153 136.798 70.848 137.087 70.26C137.386 69.6627 137.796 69.1913 138.319 68.846C138.842 68.5007 139.444 68.328 140.125 68.328C140.909 68.328 141.534 68.4773 142.001 68.776C142.468 69.0653 142.804 69.4667 143.009 69.98C143.214 70.484 143.317 71.0673 143.317 71.73C143.317 71.814 143.308 71.9213 143.289 72.052C143.28 72.1827 143.27 72.2947 143.261 72.388H138.263V72.444C138.282 73.256 138.487 73.8953 138.879 74.362C139.271 74.8193 139.822 75.048 140.531 75.048ZM140.153 69.406C139.593 69.406 139.159 69.5927 138.851 69.966C138.543 70.3393 138.356 70.862 138.291 71.534H141.889V71.338C141.889 70.75 141.754 70.2833 141.483 69.938C141.222 69.5833 140.778 69.406 140.153 69.406ZM146.418 73.914C146.418 74.3527 146.479 74.642 146.6 74.782C146.731 74.9127 146.936 74.978 147.216 74.978C147.375 74.978 147.515 74.964 147.636 74.936C147.758 74.908 147.874 74.866 147.986 74.81H148.084L147.93 76.014C147.818 76.07 147.655 76.112 147.44 76.14C147.226 76.1773 147.025 76.196 146.838 76.196C146.185 76.196 145.695 76.0373 145.368 75.72C145.042 75.4027 144.878 74.866 144.878 74.11V65.598H146.418V73.914ZM154.101 67.124C153.746 67.124 153.363 67.194 152.953 67.334C152.542 67.474 152.169 67.684 151.833 67.964H151.707L151.805 66.494C152.15 66.27 152.561 66.0973 153.037 65.976C153.513 65.8547 153.956 65.794 154.367 65.794C155.421 65.794 156.247 66.0133 156.845 66.452C157.451 66.8813 157.755 67.6373 157.755 68.72C157.755 69.224 157.675 69.686 157.517 70.106C157.367 70.5167 157.167 70.89 156.915 71.226C156.672 71.562 156.415 71.87 156.145 72.15C155.977 72.3367 155.753 72.5653 155.473 72.836C155.193 73.0973 154.88 73.382 154.535 73.69C154.189 73.998 153.839 74.2967 153.485 74.586H157.979L157.853 76H151.623V74.754C152.164 74.2687 152.626 73.8533 153.009 73.508C153.401 73.1627 153.746 72.8453 154.045 72.556C154.343 72.2667 154.619 71.9773 154.871 71.688C155.207 71.3053 155.482 70.8807 155.697 70.414C155.921 69.938 156.033 69.4387 156.033 68.916C156.033 68.2533 155.869 67.7913 155.543 67.53C155.216 67.2593 154.735 67.124 154.101 67.124Z"
        fill="var(--palette-default-active, #1434CB)" />
    <path d="M113 77.512H158.483V78.184H113V77.512Z" fill="var(--palette-default-active, #1434CB)" />
    <path d="M171.438 66.004L167.84 77.582H166.874L170.486 66.004H171.438Z" fill="var(--palette-default-text, black)"
        fill-opacity="0.5" />
    <path
        d="M181.078 76V66.004H183.22V74.334H187.574V76H181.078ZM192.497 74.81C193.066 74.81 193.537 74.74 193.911 74.6C194.293 74.46 194.634 74.2687 194.933 74.026H195.045L194.919 75.482C194.704 75.6687 194.368 75.8367 193.911 75.986C193.453 76.1353 192.898 76.21 192.245 76.21C191.461 76.21 190.779 76.0373 190.201 75.692C189.622 75.3467 189.174 74.8753 188.857 74.278C188.539 73.6807 188.381 73.004 188.381 72.248C188.381 71.492 188.53 70.8153 188.829 70.218C189.127 69.6207 189.543 69.1493 190.075 68.804C190.616 68.4587 191.241 68.286 191.951 68.286C192.781 68.286 193.435 68.44 193.911 68.748C194.396 69.056 194.737 69.476 194.933 70.008C195.129 70.5307 195.227 71.1187 195.227 71.772C195.227 71.8653 195.222 71.982 195.213 72.122C195.203 72.2527 195.194 72.3647 195.185 72.458H190.397V72.5C190.434 73.228 190.625 73.7973 190.971 74.208C191.316 74.6093 191.825 74.81 192.497 74.81ZM191.993 69.574C191.498 69.574 191.125 69.7373 190.873 70.064C190.63 70.3907 190.481 70.862 190.425 71.478H193.463V71.24C193.463 70.736 193.341 70.3347 193.099 70.036C192.865 69.728 192.497 69.574 191.993 69.574ZM198.034 68.482L199.77 73.816H199.868L201.562 68.482H203.34L200.666 76H198.594L195.92 68.482H198.034ZM208.083 74.81C208.652 74.81 209.123 74.74 209.497 74.6C209.879 74.46 210.22 74.2687 210.519 74.026H210.631L210.505 75.482C210.29 75.6687 209.954 75.8367 209.497 75.986C209.039 76.1353 208.484 76.21 207.831 76.21C207.047 76.21 206.365 76.0373 205.787 75.692C205.208 75.3467 204.76 74.8753 204.443 74.278C204.125 73.6807 203.967 73.004 203.967 72.248C203.967 71.492 204.116 70.8153 204.415 70.218C204.713 69.6207 205.129 69.1493 205.661 68.804C206.202 68.4587 206.827 68.286 207.537 68.286C208.367 68.286 209.021 68.44 209.497 68.748C209.982 69.056 210.323 69.476 210.519 70.008C210.715 70.5307 210.813 71.1187 210.813 71.772C210.813 71.8653 210.808 71.982 210.799 72.122C210.789 72.2527 210.78 72.3647 210.771 72.458H205.983V72.5C206.02 73.228 206.211 73.7973 206.557 74.208C206.902 74.6093 207.411 74.81 208.083 74.81ZM207.579 69.574C207.084 69.574 206.711 69.7373 206.459 70.064C206.216 70.3907 206.067 70.862 206.011 71.478H209.049V71.24C209.049 70.736 208.927 70.3347 208.685 70.036C208.451 69.728 208.083 69.574 207.579 69.574ZM214.219 73.732C214.219 74.124 214.279 74.3853 214.401 74.516C214.522 74.6373 214.713 74.698 214.975 74.698C215.245 74.698 215.507 74.6373 215.759 74.516H215.843L215.647 75.986C215.544 76.0513 215.367 76.1027 215.115 76.14C214.863 76.1867 214.648 76.21 214.471 76.21C213.724 76.21 213.173 76.0373 212.819 75.692C212.473 75.3467 212.301 74.7727 212.301 73.97V65.598H214.219V73.732ZM225.874 73.032C225.874 73.8253 225.706 74.4553 225.37 74.922C225.043 75.3793 224.6 75.7107 224.04 75.916C223.489 76.112 222.864 76.21 222.164 76.21C221.846 76.21 221.51 76.1773 221.156 76.112C220.81 76.0467 220.488 75.9627 220.19 75.86C219.891 75.748 219.658 75.6313 219.49 75.51L219.252 73.746H219.364C219.728 74.0447 220.148 74.2547 220.624 74.376C221.109 74.488 221.534 74.544 221.898 74.544C222.439 74.544 222.873 74.4273 223.2 74.194C223.536 73.9513 223.704 73.522 223.704 72.906C223.704 72.346 223.536 71.968 223.2 71.772C222.873 71.576 222.444 71.478 221.912 71.478H221.142L221.002 70.176H221.744C222.238 70.176 222.63 70.05 222.92 69.798C223.218 69.546 223.368 69.1867 223.368 68.72C223.368 68.272 223.246 67.95 223.004 67.754C222.761 67.558 222.369 67.46 221.828 67.46C221.305 67.46 220.848 67.5393 220.456 67.698C220.073 67.8567 219.756 68.0573 219.504 68.3H219.392L219.63 66.55C219.928 66.3167 220.316 66.1347 220.792 66.004C221.268 65.864 221.744 65.794 222.22 65.794C223.237 65.794 224.035 65.9947 224.614 66.396C225.192 66.7973 225.482 67.432 225.482 68.3C225.482 68.7387 225.384 69.112 225.188 69.42C225.001 69.7187 224.758 69.9613 224.46 70.148C224.161 70.3347 223.844 70.4747 223.508 70.568V70.624C223.937 70.6987 224.329 70.8293 224.684 71.016C225.038 71.1933 225.323 71.4453 225.538 71.772C225.762 72.0987 225.874 72.5187 225.874 73.032Z"
        fill="var(--palette-default-text, black)" />
</svg>