<!--
 *              © 2025 Visa
 *
 * Licensed under the Apache License, Version 2.0 (the "License");
 * you may not use this file except in compliance with the License.
 * You may obtain a copy of the License at
 *
 *         http://www.apache.org/licenses/LICENSE-2.0
 *
 * Unless required by applicable law or agreed to in writing, software
 * distributed under the License is distributed on an "AS IS" BASIS,
 * WITHOUT WARRANTIES OR CONDITIONS OF ANY KIND, either express or implied.
 * See the License for the specific language governing permissions and
 * limitations under the License.
 *
 -->
<svg width="304" height="140" viewBox="0 0 304 140" fill="none" xmlns="http://www.w3.org/2000/svg">
    <rect width="304" height="140" fill="var(--palette-default-surface-2, #F0F0F0)" />
    <circle cx="129" cy="76.3876" r="24" fill="var(--palette-default-active, #1434CB)" />
    <path fill-rule="evenodd" clip-rule="evenodd"
        d="M134.743 80.7165L140.707 86.6805C141.097 87.0705 141.097 87.7035 140.707 88.0945C140.316 88.4855 139.683 88.4855 139.293 88.0945L133.329 82.1305C131.605 83.5405 129.401 84.3875 127 84.3875C121.476 84.3875 117 79.9105 117 74.3875C117 68.8635 121.476 64.3875 127 64.3875C132.523 64.3875 137 68.8635 137 74.3875C137 76.7885 136.154 78.9925 134.743 80.7165ZM135 74.3875C135 69.9685 131.419 66.3875 127 66.3875C122.581 66.3875 119 69.9685 119 74.3875C119 78.8065 122.581 82.3875 127 82.3875C131.419 82.3875 135 78.8065 135 74.3875Z"
        fill="var(--palette-default-surface-1, white)" />
    <g filter="url(#filter0_d_2887_84890)">
        <path fill-rule="evenodd" clip-rule="evenodd"
            d="M141 70.4595C141.151 70.5949 141.255 70.6922 141.575 70.9968C141.889 71.2951 142.041 71.436 142.18 71.554C142.238 71.6028 142.287 71.7332 142.307 71.9271C142.323 72.0867 142.317 72.2647 142.298 72.4362C142.291 72.4955 142.285 72.5382 142.281 72.5586C142.239 72.7874 142.413 72.9987 142.646 73.0011C142.855 73.0032 143.016 73.0058 143.443 73.0134C143.55 73.0153 143.55 73.0153 143.657 73.0172C144.818 73.0372 145.41 73.0317 145.836 72.9782C146.29 72.921 146.758 72.372 147.163 71.6831C147.506 72.2927 147.982 72.8879 148.462 72.9653C148.615 72.9897 148.799 72.9973 149.013 72.9924C149.173 72.9887 149.342 72.9782 149.512 72.963C149.64 72.9515 149.743 72.9399 149.804 72.932C150.03 72.9027 150.178 72.6804 150.117 72.4608C150.104 72.4133 150.083 72.3262 150.062 72.2166C150.038 72.0896 150.02 71.9655 150.012 71.8524C150.007 71.7808 150.006 71.7159 150.009 71.6598C150.015 71.562 150.017 71.5072 150.019 71.3807C150.02 71.3336 150.02 71.3336 150.022 71.2924C150.027 71.1575 150.045 71.0295 150.104 70.7502C150.129 70.629 150.251 70.397 150.443 70.1099C150.501 70.0244 150.563 69.9352 150.63 69.843C150.757 69.6682 150.894 69.4916 151.031 69.3226C151.113 69.2213 151.177 69.1456 151.212 69.1045C151.508 68.6801 151.824 67.9853 151.94 67.5791C152.052 67.1887 152.141 66.4698 152.196 65.7631C152.226 65.3622 152.237 65.039 152.237 64.5321C152.237 64.4432 152.237 64.4432 152.237 64.3698C152.237 64.2495 152.237 64.204 152.237 64.1478C152.236 63.9942 152.231 63.842 152.216 63.4538C152.185 62.6401 151.739 62.1141 151.082 62.0126C150.523 61.9263 149.842 62.3906 149.842 62.3906C149.842 62.3906 149.691 61.8678 149.588 61.7064C149.422 61.447 148.994 61.1166 148.667 61.0522C148.331 60.9868 147.932 60.9941 147.565 61.0589C147.245 61.1163 146.925 61.4027 146.74 61.7116C146.608 61.932 146.732 61.6999 146.6 61.4719C146.417 61.1579 145.991 60.8767 145.585 60.7937C145.241 60.7226 144.847 60.7497 144.487 60.8567C144.024 60.995 143.95 61.3474 143.932 61.2465C143.87 60.9083 143.864 60.9305 143.826 60.6892C143.683 59.7939 143.524 59.1745 143.282 58.6339C143.296 58.665 143.193 58.4318 143.156 58.3514C143.091 58.2121 143.027 58.0861 142.956 57.9648C142.738 57.5912 142.487 57.3114 142.173 57.1525C141.627 56.8762 140.81 57.0107 140.422 57.4631C140.037 57.9128 139.973 58.6646 140.07 59.595C140.107 59.9562 140.237 60.6157 140.354 61.1031C140.396 61.2723 140.432 61.4266 140.499 61.7116C140.511 61.7601 140.511 61.7601 140.522 61.8086C140.574 62.0243 140.619 62.2018 140.673 62.3966C140.668 62.3763 140.77 62.7407 140.792 62.8213C140.8 62.8482 140.8 62.8482 140.807 62.8753C140.848 63.029 140.888 63.1948 140.95 63.4716C140.984 63.6237 141.017 63.7862 141.05 63.9586C141.139 64.4285 141.139 64.3306 141.054 64.2304C140.995 64.1612 140.939 64.0983 140.885 64.0404C140.786 63.9327 140.694 63.8436 140.607 63.7726C139.972 63.2535 139.584 63.0242 139.05 62.9738C138.175 62.8897 137.344 63.508 137.219 64.3426C137.142 64.8543 137.167 65.0898 137.404 65.542C137.534 65.7864 137.754 66.0815 138.165 66.5894C138.19 66.6205 138.19 66.6205 138.216 66.6515C138.72 67.2733 138.775 67.3424 138.895 67.5162C139.22 67.9869 140.009 69.3383 140.153 69.5198L141 70.4595Z"
            fill="var(--palette-default-text, black)" />
        <path fill-rule="evenodd" clip-rule="evenodd"
            d="M138.798 66.1789C138.773 66.1482 138.773 66.1482 138.748 66.1175C138.371 65.6514 138.164 65.3743 138.067 65.1917C137.914 64.8997 137.906 64.8206 137.961 64.4538C138.025 64.0213 138.492 63.6737 138.979 63.7204C139.316 63.7522 139.61 63.9257 140.132 64.3533C140.189 64.3995 140.257 64.4658 140.335 64.5501C140.381 64.5999 140.43 64.6553 140.483 64.7173C140.563 64.8103 140.83 65.1378 140.791 65.0901C140.849 65.16 140.891 65.2142 140.938 65.2806C141.032 65.4149 141.085 65.4895 141.157 65.5851C141.123 65.5402 141.372 65.8835 141.424 65.9337C141.703 66.1997 142.106 65.9757 142.081 65.6213C142.077 65.5621 142.063 65.4982 142.034 65.3866C141.919 64.5674 141.879 64.3044 141.787 63.8192C141.753 63.639 141.718 63.4682 141.682 63.307C141.617 63.0215 141.575 62.847 141.532 62.6828C141.524 62.6537 141.524 62.6537 141.516 62.625C141.493 62.5401 141.389 62.1703 141.396 62.1951C141.345 62.0104 141.301 61.8413 141.252 61.6337C141.24 61.5864 141.24 61.5864 141.229 61.5388C141.162 61.2553 141.125 61.0971 141.083 60.9256C140.973 60.4699 140.849 59.8384 140.816 59.5179C140.74 58.7937 140.792 58.1837 140.992 57.951C141.147 57.7694 141.588 57.6969 141.834 57.8217C141.995 57.9031 142.156 58.083 142.309 58.3434C142.366 58.442 142.42 58.5477 142.476 58.667C142.509 58.7393 142.609 58.9654 142.598 58.9404C142.808 59.4103 142.952 59.9712 143.085 60.8071C143.125 61.0548 143.174 61.3353 143.236 61.6786C143.255 61.7804 143.255 61.7804 143.273 61.8817C143.575 63.5171 143.553 63.3931 143.557 63.5236C143.573 63.9993 144.275 64.0105 144.306 63.5355C144.316 63.3848 144.312 63.2503 144.295 62.864C144.292 62.8093 144.292 62.8093 144.29 62.7549C144.275 62.399 144.276 62.1942 144.297 62.0778C144.335 61.8656 144.526 61.6279 144.701 61.5754C144.948 61.5022 145.218 61.4836 145.434 61.5283C145.641 61.5707 145.882 61.7301 145.952 61.849C146.035 61.993 146.107 62.2123 146.162 62.4843C146.206 62.7038 146.237 62.9392 146.258 63.1905C146.265 63.2687 146.269 63.3291 146.276 63.4291C146.279 63.4709 146.279 63.4709 146.282 63.5054C146.283 63.5227 146.283 63.5227 146.287 63.5501C146.29 63.5693 146.29 63.5693 146.304 63.6178C146.312 63.7557 146.312 63.7556 146.865 63.8068C147.031 63.6069 147.031 63.6069 147.026 63.5719C147.053 63.4535 147.07 63.3216 147.093 63.0738C147.108 62.9126 147.116 62.8334 147.125 62.7513C147.162 62.4111 147.208 62.195 147.265 62.1001C147.336 61.9819 147.585 61.8172 147.697 61.7973C147.977 61.7476 148.285 61.7421 148.523 61.7882C148.631 61.8094 148.894 62.0124 148.956 62.1094C149.084 62.311 149.208 62.9608 149.278 63.6056C149.267 63.6479 149.267 63.6479 149.439 63.8932C150.029 63.8259 150.029 63.8259 150.012 63.7193C150.028 63.6813 150.04 63.6374 150.058 63.5691C150.1 63.4094 150.128 63.3167 150.17 63.2128C150.199 63.1409 150.229 63.0794 150.26 63.0305C150.381 62.8406 150.693 62.7115 150.967 62.7538C151.261 62.7993 151.449 63.0205 151.467 63.4828C151.482 63.8632 151.486 64.0095 151.487 64.153C151.487 64.206 151.487 64.2485 151.487 64.3681C151.487 64.4421 151.487 64.4421 151.487 64.5321C151.487 65.021 151.476 65.3256 151.448 65.7061C151.397 66.3594 151.312 67.0489 151.219 67.3732C151.125 67.7038 150.843 68.3241 150.619 68.6467C150.604 68.662 150.536 68.7431 150.449 68.8504C150.304 69.0288 150.16 69.2154 150.024 69.4016C149.951 69.5014 149.883 69.5985 149.82 69.6925C149.577 70.0563 149.42 70.3533 149.37 70.5968C149.303 70.9132 149.279 71.0811 149.272 71.263C149.271 71.3145 149.271 71.3145 149.269 71.3645C149.267 71.4825 149.265 71.5302 149.26 71.6165C149.255 71.7072 149.257 71.8037 149.264 71.9057C149.274 72.0516 149.264 72.2511 149.264 72.2511C149.264 72.2511 149.137 72.2393 148.996 72.2426C148.824 72.2465 148.68 72.2406 148.581 72.2248C148.438 72.2018 148.052 71.7184 147.854 71.3417C147.552 70.7653 146.818 70.7933 146.517 71.3023C146.246 71.7642 145.857 72.2196 145.742 72.234C145.367 72.2811 144.787 72.2865 143.67 72.2673C143.563 72.2654 143.563 72.2654 143.457 72.2635C143.028 72.2559 143.044 72.3283 143.053 72.2511C143.078 72.0308 143.075 72.0721 143.053 71.8518C143.016 71.4825 142.902 71.1813 142.664 70.9813C142.541 70.8769 142.395 70.7406 142.099 70.4602C141.762 70.1398 141.657 70.0409 141.526 69.9265L140.725 69.0357C140.637 68.9233 139.865 67.6018 139.513 67.0903C139.375 66.8918 139.324 66.8273 138.798 66.1789ZM148.307 66.1826V69.6416C148.307 70.1416 149.057 70.1416 149.057 69.6416V66.1826C149.057 65.6826 148.307 65.6826 148.307 66.1826ZM146.275 66.182L146.291 69.655C146.293 70.155 147.043 70.1516 147.041 69.6516L147.025 66.1786C147.023 65.6786 146.273 65.682 146.275 66.182ZM145.066 69.6356L145.045 66.2096C145.042 65.7096 144.292 65.7142 144.295 66.2142L144.316 69.6402C144.319 70.1402 145.069 70.1356 145.066 69.6356Z"
            fill="var(--palette-default-surface-1, white)" />
    </g>
    <g filter="url(#filter1_dd_2887_84890)">
        <rect width="46" height="24" transform="translate(121.35 32)" fill="var(--palette-default-surface-1, white)" />
        <path
            d="M126.485 42.592C126.485 42.064 126.609 41.628 126.857 41.284C127.105 40.94 127.433 40.684 127.841 40.516C128.249 40.34 128.697 40.252 129.185 40.252C129.777 40.252 130.253 40.324 130.613 40.468C130.973 40.612 131.237 40.752 131.405 40.888L131.489 41.968H131.405C131.157 41.728 130.833 41.528 130.433 41.368C130.033 41.2 129.617 41.116 129.185 41.116C128.689 41.116 128.289 41.216 127.985 41.416C127.689 41.616 127.541 41.952 127.541 42.424C127.541 42.784 127.609 43.06 127.745 43.252C127.881 43.444 128.085 43.6 128.357 43.72C128.637 43.832 128.989 43.956 129.413 44.092C129.765 44.196 130.097 44.308 130.409 44.428C130.721 44.548 130.993 44.7 131.225 44.884C131.465 45.06 131.653 45.292 131.789 45.58C131.925 45.86 131.993 46.22 131.993 46.66C131.993 47.484 131.741 48.112 131.237 48.544C130.741 48.968 130.021 49.18 129.077 49.18C128.605 49.18 128.125 49.112 127.637 48.976C127.157 48.84 126.765 48.656 126.461 48.424L126.389 47.332H126.485C126.845 47.644 127.245 47.888 127.685 48.064C128.133 48.232 128.601 48.316 129.089 48.316C129.665 48.316 130.117 48.2 130.445 47.968C130.773 47.736 130.937 47.368 130.937 46.864C130.937 46.368 130.773 46 130.445 45.76C130.117 45.512 129.629 45.296 128.981 45.112C128.509 44.968 128.085 44.812 127.709 44.644C127.333 44.468 127.033 44.224 126.809 43.912C126.593 43.592 126.485 43.152 126.485 42.592ZM136.292 48.4C136.82 48.4 137.24 48.332 137.552 48.196C137.872 48.06 138.168 47.872 138.44 47.632H138.524L138.44 48.52C138.264 48.672 137.984 48.82 137.6 48.964C137.224 49.1 136.76 49.168 136.208 49.168C135.6 49.168 135.068 49.024 134.612 48.736C134.156 48.448 133.8 48.052 133.544 47.548C133.288 47.044 133.16 46.468 133.16 45.82C133.16 45.172 133.284 44.596 133.532 44.092C133.78 43.588 134.12 43.192 134.552 42.904C134.992 42.616 135.488 42.472 136.04 42.472C136.68 42.472 137.196 42.592 137.588 42.832C137.98 43.064 138.264 43.392 138.44 43.816C138.616 44.24 138.704 44.732 138.704 45.292C138.704 45.372 138.696 45.464 138.68 45.568C138.672 45.672 138.664 45.764 138.656 45.844H134.18V45.892C134.188 46.668 134.376 47.28 134.744 47.728C135.12 48.176 135.636 48.4 136.292 48.4ZM136.052 43.216C135.524 43.216 135.1 43.392 134.78 43.744C134.468 44.096 134.276 44.592 134.204 45.232H137.768V45.1C137.768 44.524 137.644 44.068 137.396 43.732C137.148 43.388 136.7 43.216 136.052 43.216ZM140.164 43.996L140.272 43.06C140.496 42.9 140.788 42.764 141.148 42.652C141.508 42.532 141.892 42.472 142.3 42.472C143.06 42.472 143.624 42.636 143.992 42.964C144.368 43.284 144.556 43.812 144.556 44.548V49H143.752L143.656 47.968H143.584C143.44 48.376 143.204 48.68 142.876 48.88C142.548 49.072 142.144 49.168 141.664 49.168C141.328 49.168 141.016 49.108 140.728 48.988C140.44 48.868 140.208 48.68 140.032 48.424C139.864 48.16 139.78 47.816 139.78 47.392C139.78 46.792 139.964 46.352 140.332 46.072C140.7 45.792 141.184 45.596 141.784 45.484C142.288 45.396 142.692 45.32 142.996 45.256C143.3 45.184 143.5 45.092 143.596 44.98V44.596C143.596 44.132 143.496 43.792 143.296 43.576C143.096 43.352 142.724 43.24 142.18 43.24C141.828 43.24 141.48 43.304 141.136 43.432C140.8 43.56 140.504 43.748 140.248 43.996H140.164ZM143.584 46.912V45.616C143.48 45.704 143.288 45.784 143.008 45.856C142.728 45.92 142.38 45.992 141.964 46.072C141.612 46.144 141.32 46.264 141.088 46.432C140.864 46.6 140.752 46.9 140.752 47.332C140.752 47.724 140.86 48.004 141.076 48.172C141.292 48.34 141.58 48.424 141.94 48.424C142.284 48.424 142.58 48.348 142.828 48.196C143.076 48.044 143.264 47.852 143.392 47.62C143.52 47.388 143.584 47.152 143.584 46.912ZM148.823 43.456C148.351 43.456 147.987 43.616 147.731 43.936C147.483 44.248 147.359 44.72 147.359 45.352V49H146.387V42.64H147.191L147.287 43.744H147.335C147.431 43.408 147.571 43.148 147.755 42.964C147.939 42.78 148.147 42.652 148.379 42.58C148.619 42.508 148.863 42.472 149.111 42.472C149.207 42.472 149.303 42.48 149.399 42.496C149.495 42.512 149.567 42.528 149.615 42.544L149.471 43.6H149.399C149.343 43.576 149.267 43.548 149.171 43.516C149.075 43.476 148.959 43.456 148.823 43.456ZM150.281 45.82C150.281 45.172 150.405 44.596 150.653 44.092C150.901 43.588 151.249 43.192 151.697 42.904C152.153 42.616 152.689 42.472 153.305 42.472C153.825 42.472 154.245 42.536 154.565 42.664C154.885 42.792 155.125 42.928 155.285 43.072L155.369 44.104H155.285C155.045 43.848 154.773 43.644 154.469 43.492C154.173 43.34 153.801 43.264 153.353 43.264C152.745 43.264 152.249 43.492 151.865 43.948C151.481 44.404 151.289 45.028 151.289 45.82C151.289 46.628 151.485 47.256 151.877 47.704C152.277 48.152 152.789 48.376 153.413 48.376C153.749 48.376 154.029 48.344 154.253 48.28C154.485 48.208 154.685 48.112 154.853 47.992C155.029 47.872 155.201 47.736 155.369 47.584H155.465L155.369 48.46C155.201 48.636 154.941 48.8 154.589 48.952C154.245 49.096 153.813 49.168 153.293 49.168C152.677 49.168 152.141 49.024 151.685 48.736C151.237 48.448 150.889 48.052 150.641 47.548C150.401 47.044 150.281 46.468 150.281 45.82ZM159.635 43.288C159.307 43.288 159.007 43.368 158.735 43.528C158.471 43.68 158.259 43.896 158.099 44.176C157.947 44.448 157.871 44.764 157.871 45.124V49H156.899V40.084H157.859V43.732H157.907C158.027 43.388 158.199 43.128 158.423 42.952C158.647 42.768 158.895 42.644 159.167 42.58C159.439 42.508 159.711 42.472 159.983 42.472C160.631 42.472 161.139 42.652 161.507 43.012C161.883 43.364 162.071 43.912 162.071 44.656V49H161.087V44.932C161.087 44.388 160.975 43.98 160.751 43.708C160.527 43.428 160.155 43.288 159.635 43.288Z"
            fill="var(--palette-default-text, black)" />
    </g>
    <defs>
        <filter id="filter0_d_2887_84890" x="135.18" y="56.0094" width="19.0573" height="20.0185"
            filterUnits="userSpaceOnUse" color-interpolation-filters="sRGB">
            <feFlood flood-opacity="0" result="BackgroundImageFix" />
            <feColorMatrix in="SourceAlpha" type="matrix" values="0 0 0 0 0 0 0 0 0 0 0 0 0 0 0 0 0 0 127 0"
                result="hardAlpha" />
            <feOffset dy="1" />
            <feGaussianBlur stdDeviation="1" />
            <feColorMatrix type="matrix" values="0 0 0 0 0 0 0 0 0 0 0 0 0 0 0 0 0 0 0.298656 0" />
            <feBlend mode="normal" in2="BackgroundImageFix" result="effect1_dropShadow_2887_84890" />
            <feBlend mode="normal" in="SourceGraphic" in2="effect1_dropShadow_2887_84890" result="shape" />
        </filter>
        <filter id="filter1_dd_2887_84890" x="118.35" y="30" width="52" height="30" filterUnits="userSpaceOnUse"
            color-interpolation-filters="sRGB">
            <feFlood flood-opacity="0" result="BackgroundImageFix" />
            <feColorMatrix in="SourceAlpha" type="matrix" values="0 0 0 0 0 0 0 0 0 0 0 0 0 0 0 0 0 0 127 0"
                result="hardAlpha" />
            <feMorphology radius="1" operator="erode" in="SourceAlpha" result="effect1_dropShadow_2887_84890" />
            <feOffset dy="1" />
            <feGaussianBlur stdDeviation="1" />
            <feComposite in2="hardAlpha" operator="out" />
            <feColorMatrix type="matrix" values="0 0 0 0 0 0 0 0 0 0 0 0 0 0 0 0 0 0 0.1 0" />
            <feBlend mode="normal" in2="BackgroundImageFix" result="effect1_dropShadow_2887_84890" />
            <feColorMatrix in="SourceAlpha" type="matrix" values="0 0 0 0 0 0 0 0 0 0 0 0 0 0 0 0 0 0 127 0"
                result="hardAlpha" />
            <feOffset dy="1" />
            <feGaussianBlur stdDeviation="1.5" />
            <feComposite in2="hardAlpha" operator="out" />
            <feColorMatrix type="matrix" values="0 0 0 0 0 0 0 0 0 0 0 0 0 0 0 0 0 0 0.1 0" />
            <feBlend mode="normal" in2="effect1_dropShadow_2887_84890" result="effect2_dropShadow_2887_84890" />
            <feBlend mode="normal" in="SourceGraphic" in2="effect2_dropShadow_2887_84890" result="shape" />
        </filter>
    </defs>
</svg>