<!--
 *              © 2025 Visa
 *
 * Licensed under the Apache License, Version 2.0 (the "License");
 * you may not use this file except in compliance with the License.
 * You may obtain a copy of the License at
 *
 *         http://www.apache.org/licenses/LICENSE-2.0
 *
 * Unless required by applicable law or agreed to in writing, software
 * distributed under the License is distributed on an "AS IS" BASIS,
 * WITHOUT WARRANTIES OR CONDITIONS OF ANY KIND, either express or implied.
 * See the License for the specific language governing permissions and
 * limitations under the License.
 *
 -->
<svg width="300" height="140" viewBox="0 0 300 140" fill="none" xmlns="http://www.w3.org/2000/svg">
    <rect width="300" height="140" fill="var(--palette-default-surface-2, #F0F0F0)" />
    <path
        d="M43.5 70C43.5 66.134 46.634 63 50.5 63C54.366 63 57.5 66.134 57.5 70C57.5 73.866 54.366 77 50.5 77C46.634 77 43.5 73.866 43.5 70Z"
        fill="#40996B" />
    <g clip-path="url(#clip0_125_7284)">
        <path
            d="M54.2715 67.7786L49.0571 72.993L46.7648 70.7006L47.4535 70.0119L49.0571 71.6155L53.5828 67.0899L54.2715 67.7786Z"
            fill="var(--palette-default-surface-1, white)" />
    </g>
    <rect x="61.5" y="67" width="37" height="6" rx="3" fill="#D9D9D9" />
    <path fill-rule="evenodd" clip-rule="evenodd"
        d="M105.871 65.625L110 70L105.871 74.375L105 73.4525L108.259 70L105 66.5475L105.871 65.625Z"
        fill="var(--palette-default-text, black)" fill-opacity="0.5" />
    <path
        d="M122.5 70C122.5 66.134 125.634 63 129.5 63C133.366 63 136.5 66.134 136.5 70C136.5 73.866 133.366 77 129.5 77C125.634 77 122.5 73.866 122.5 70Z"
        fill="var(--palette-default-active, #1434CB)" />
    <path
        d="M129.055 67.5827C128.819 67.5827 128.564 67.6293 128.29 67.7227C128.016 67.816 127.767 67.956 127.543 68.1427H127.459L127.525 67.1627C127.755 67.0133 128.029 66.8982 128.346 66.8173C128.663 66.7364 128.959 66.696 129.233 66.696C129.936 66.696 130.487 66.8422 130.885 67.1347C131.289 67.4209 131.491 67.9249 131.491 68.6467C131.491 68.9827 131.439 69.2907 131.333 69.5707C131.233 69.8444 131.099 70.0933 130.931 70.3173C130.77 70.5413 130.599 70.7467 130.418 70.9333C130.306 71.0578 130.157 71.2102 129.97 71.3907C129.783 71.5649 129.575 71.7547 129.345 71.96C129.115 72.1653 128.881 72.3644 128.645 72.5573H131.641L131.557 73.5H127.403V72.6693C127.764 72.3458 128.072 72.0689 128.327 71.8387C128.589 71.6084 128.819 71.3969 129.018 71.204C129.217 71.0111 129.401 70.8182 129.569 70.6253C129.793 70.3702 129.976 70.0871 130.119 69.776C130.269 69.4587 130.343 69.1258 130.343 68.7773C130.343 68.3356 130.235 68.0276 130.017 67.8533C129.799 67.6729 129.479 67.5827 129.055 67.5827Z"
        fill="var(--palette-default-surface-1, white)" />
    <rect x="140.5" y="67" width="37" height="6" rx="3" fill="#4A4A4A" />
    <path fill-rule="evenodd" clip-rule="evenodd"
        d="M184.871 65.625L189 70L184.871 74.375L184 73.4525L187.259 70L184 66.5475L184.871 65.625Z"
        fill="var(--palette-default-text, black)" fill-opacity="0.5" />
    <path
        d="M201.5 70C201.5 66.134 204.634 63 208.5 63C212.366 63 215.5 66.134 215.5 70C215.5 73.866 212.366 77 208.5 77C204.634 77 201.5 73.866 201.5 70Z"
        fill="var(--palette-default-surface-2, #F0F0F0)" />
    <path
        d="M210.61 71.54C210.61 72.0627 210.501 72.4764 210.283 72.7813C210.071 73.0862 209.785 73.3071 209.424 73.444C209.063 73.5747 208.662 73.64 208.22 73.64C208.009 73.64 207.791 73.6182 207.567 73.5747C207.343 73.5311 207.134 73.4751 206.942 73.4067C206.749 73.332 206.596 73.2542 206.484 73.1733L206.344 72.1933H206.419C206.649 72.3924 206.923 72.5356 207.24 72.6227C207.564 72.7036 207.85 72.744 208.099 72.744C208.51 72.744 208.839 72.6538 209.088 72.4733C209.343 72.2867 209.471 71.9538 209.471 71.4747C209.471 71.2009 209.409 70.9862 209.284 70.8307C209.166 70.6689 209.004 70.5569 208.799 70.4947C208.6 70.4262 208.373 70.392 208.118 70.392H207.614L207.53 69.6827H208.006C208.398 69.6827 208.696 69.5769 208.902 69.3653C209.107 69.1538 209.21 68.88 209.21 68.544C209.21 68.2142 209.119 67.9716 208.939 67.816C208.765 67.6604 208.475 67.5827 208.071 67.5827C207.741 67.5827 207.439 67.6387 207.166 67.7507C206.898 67.8627 206.68 68.0027 206.512 68.1707H206.447L206.578 67.2C206.764 67.0507 207.01 66.9293 207.315 66.836C207.626 66.7427 207.937 66.696 208.248 66.696C208.902 66.696 209.412 66.8298 209.779 67.0973C210.146 67.3587 210.33 67.7787 210.33 68.3573C210.33 68.656 210.267 68.908 210.143 69.1133C210.018 69.3187 209.857 69.4867 209.658 69.6173C209.465 69.7418 209.259 69.8351 209.042 69.8973V69.9347C209.315 69.9782 209.57 70.0622 209.807 70.1867C210.05 70.3049 210.242 70.476 210.386 70.7C210.535 70.9178 210.61 71.1978 210.61 71.54Z"
        fill="#4A4A4A" />
    <rect x="219.5" y="67" width="37" height="6" rx="3" fill="#D9D9D9" />
    <defs>
        <clipPath id="clip0_125_7284">
            <rect width="7.79199" height="7.79199" fill="var(--palette-default-surface-1, white)"
                transform="translate(46.604 66.104)" />
        </clipPath>
    </defs>
</svg>