<!--
 *              © 2025 Visa
 *
 * Licensed under the Apache License, Version 2.0 (the "License");
 * you may not use this file except in compliance with the License.
 * You may obtain a copy of the License at
 *
 *         http://www.apache.org/licenses/LICENSE-2.0
 *
 * Unless required by applicable law or agreed to in writing, software
 * distributed under the License is distributed on an "AS IS" BASIS,
 * WITHOUT WARRANTIES OR CONDITIONS OF ANY KIND, either express or implied.
 * See the License for the specific language governing permissions and
 * limitations under the License.
 *
 -->
<svg width="300" height="140" viewBox="0 0 300 140" fill="none" xmlns="http://www.w3.org/2000/svg">
    <rect width="300" height="140" fill="var(--palette-default-surface-2, #F0F0F0)" />
    <rect x="85" y="21.5" width="130" height="97" rx="4.5" fill="var(--palette-default-surface-1, white)" />
    <g clip-path="url(#clip0_2917_92201)">
        <path fill-rule="evenodd" clip-rule="evenodd"
            d="M111.621 41.6767L111.472 40.5866C111.272 39.1261 110.016 38 108.5 38C107.268 38 106.205 38.7428 105.743 39.813L105.163 41.1576L103.706 41.0103C103.639 41.0035 103.57 41 103.5 41C102.395 41 101.5 41.8954 101.5 43C101.5 44.1046 102.395 45 103.5 45H112C112.828 45 113.5 44.3284 113.5 43.5C113.5 42.8969 113.144 42.3727 112.622 42.1341L111.621 41.6767ZM103.5 47C101.291 47 99.5 45.2091 99.5 43C99.5 40.7909 101.291 39 103.5 39C103.637 39 103.773 39.0069 103.907 39.0205C104.674 37.2436 106.442 36 108.5 36C111.029 36 113.12 37.8777 113.453 40.3151C114.661 40.8671 115.5 42.0856 115.5 43.5C115.5 45.433 113.933 47 112 47H103.5Z"
            fill="var(--palette-default-active, #1434CB)" />
    </g>
    <path fill-rule="evenodd" clip-rule="evenodd"
        d="M139.5 40V44C139.5 46.2091 137.709 48 135.5 48C133.291 48 131.5 46.2091 131.5 44V40C131.5 38.1362 132.775 36.5701 134.5 36.126V41H136.5V36.126C138.225 36.5701 139.5 38.1362 139.5 40ZM129.5 40C129.5 36.6863 132.186 34 135.5 34C138.814 34 141.5 36.6863 141.5 40V44C141.5 47.3137 138.814 50 135.5 50C132.186 50 129.5 47.3137 129.5 44V40Z"
        fill="var(--palette-default-active, #1434CB)" />
    <g clip-path="url(#clip1_2917_92201)">
        <path fill-rule="evenodd" clip-rule="evenodd"
            d="M168.707 36.6215C168.317 36.231 167.683 36.231 167.293 36.6215L165.914 38.0001L167.5 39.5859L168.879 38.2073C169.269 37.8168 169.269 37.1836 168.879 36.7931L168.707 36.6215ZM168.914 41.0001L170.293 39.6215C171.464 38.4499 171.464 36.5504 170.293 35.3789L170.121 35.2073C168.95 34.0357 167.05 34.0357 165.879 35.2073L164.5 36.5859L163.207 35.293L161.793 36.7072L168.793 43.7072L170.207 42.293L168.914 41.0001Z"
            fill="var(--palette-default-active, #1434CB)" />
        <path
            d="M163.043 40.8712L161.629 39.457L155.5 45.5858V50H159.914L166.043 43.8712L164.629 42.457L159.086 48H157.5V46.4142L163.043 40.8712Z"
            fill="var(--palette-default-active, #1434CB)" />
    </g>
    <g clip-path="url(#clip2_2917_92201)">
        <path fill-rule="evenodd" clip-rule="evenodd"
            d="M191.5 48C194.814 48 197.5 45.3137 197.5 42C197.5 38.6863 194.814 36 191.5 36C188.186 36 185.5 38.6863 185.5 42C185.5 45.3137 188.186 48 191.5 48ZM191.5 50C195.918 50 199.5 46.4183 199.5 42C199.5 37.5817 195.918 34 191.5 34C187.082 34 183.5 37.5817 183.5 42C183.5 46.4183 187.082 50 191.5 50Z"
            fill="var(--palette-default-active, #1434CB)" />
        <path fill-rule="evenodd" clip-rule="evenodd"
            d="M192.5 38H190.5V42H192.5V38ZM191.5 44C190.948 44 190.5 44.4477 190.5 45C190.5 45.5523 190.948 46 191.5 46C192.052 46 192.5 45.5523 192.5 45C192.5 44.4477 192.052 44 191.5 44Z"
            fill="var(--palette-default-active, #1434CB)" />
    </g>
    <g clip-path="url(#clip3_2917_92201)">
        <path fill-rule="evenodd" clip-rule="evenodd"
            d="M109.15 68.1938L108.695 67.232L107.5 64.7114L106.305 67.232L105.85 68.1938L104.797 68.3531L101.963 68.782L104.068 70.9185L104.782 71.6433L104.616 72.647L104.137 75.5584L106.54 74.2429L107.5 73.717L108.46 74.2429L110.863 75.5584L110.384 72.647L110.218 71.6433L110.932 70.9185L113.037 68.782L110.203 68.3531L109.15 68.1938ZM110.502 66.3756L108.839 62.8669C108.291 61.711 106.709 61.711 106.161 62.8669L104.498 66.3756L100.78 66.9382C99.5554 67.1236 99.0663 68.6912 99.9526 69.591L102.643 72.322L102.008 76.1784C101.799 77.4489 103.079 78.4177 104.175 77.8179L107.5 75.9972L110.825 77.8179C111.921 78.4177 113.201 77.4489 112.992 76.1784L112.357 72.322L115.047 69.591C115.934 68.6912 115.445 67.1236 114.22 66.9382L110.502 66.3756Z"
            fill="var(--palette-default-active, #1434CB)" />
    </g>
    <g clip-path="url(#clip4_2917_92201)">
        <path fill-rule="evenodd" clip-rule="evenodd"
            d="M129.5 64V62H127.5V64H129.5ZM143.5 69.6278V62.6558L139.167 63.9558L135.833 62.9558L132.569 63.9351C131.935 64.1254 131.5 64.7094 131.5 65.3718V72.3438L135.833 71.0438L139.167 72.0438L142.431 71.0645C143.065 70.8742 143.5 70.2902 143.5 69.6278ZM133.5 69.6558V65.7438L135.833 65.0438L139.167 66.0438L141.5 65.3438V69.2558L139.167 69.9558L135.833 68.9558L133.5 69.6558Z"
            fill="var(--palette-default-active, #1434CB)" />
        <path fill-rule="evenodd" clip-rule="evenodd" d="M129.5 66V78H127.5V66H129.5Z"
            fill="var(--palette-default-active, #1434CB)" />
    </g>
    <path fill-rule="evenodd" clip-rule="evenodd"
        d="M164.524 74.3838C164.256 75.3863 163.896 76 163.5 76C163.104 76 162.744 75.3863 162.476 74.3838C162.469 74.3572 162.462 74.3304 162.455 74.3033C162.231 73.434 162.075 72.2882 162.021 71.0039H164.979C164.925 72.2882 164.769 73.434 164.545 74.3033C164.538 74.3304 164.531 74.3572 164.524 74.3838ZM166.981 71.0039C166.927 72.3965 166.761 73.6879 166.501 74.7277C166.455 74.9122 166.403 75.0986 166.346 75.2836C167.942 74.4218 169.104 72.8571 169.416 71.0039H166.981ZM169.418 69.0039H166.981C166.927 67.6083 166.761 66.3141 166.501 65.2723C166.455 65.0878 166.403 64.9014 166.346 64.7164C167.945 65.5794 169.107 67.1473 169.418 69.0039ZM164.979 69.0039H162.021C162.074 67.7164 162.231 66.5678 162.455 65.6967C162.462 65.6696 162.469 65.6428 162.476 65.6162C162.744 64.6137 163.104 64 163.5 64C163.896 64 164.256 64.6137 164.524 65.6162C164.531 65.6428 164.538 65.6696 164.545 65.6967C164.769 66.5678 164.926 67.7164 164.979 69.0039ZM160.019 69.0039C160.073 67.6083 160.239 66.3141 160.499 65.2723C160.545 65.0878 160.597 64.9014 160.654 64.7164C159.055 65.5794 157.893 67.1473 157.582 69.0039H160.019ZM157.584 71.0039C157.896 72.8571 159.058 74.4218 160.654 75.2836C160.597 75.0986 160.545 74.9122 160.499 74.7277C160.239 73.6879 160.073 72.3965 160.019 71.0039H157.584ZM163.5 78C167.918 78 171.5 74.4183 171.5 70C171.5 65.5817 167.918 62 163.5 62C159.082 62 155.5 65.5817 155.5 70C155.5 74.4183 159.082 78 163.5 78ZM164.638 74.5108L164.636 74.5081C164.67 74.5529 164.669 74.5639 164.638 74.5108ZM164.638 65.4892C164.669 65.4361 164.67 65.4471 164.636 65.4919L164.638 65.4892ZM162.362 65.4892L162.364 65.4919C162.33 65.4471 162.331 65.4361 162.362 65.4892ZM162.362 74.5108C162.331 74.5639 162.33 74.5529 162.364 74.5081L162.362 74.5108Z"
        fill="var(--palette-default-active, #1434CB)" />
    <g clip-path="url(#clip5_2917_92201)">
        <path
            d="M109.5 96C109.5 97.1046 108.605 98 107.5 98C106.395 98 105.5 97.1046 105.5 96C105.5 94.8954 106.395 94 107.5 94C108.605 94 109.5 94.8954 109.5 96Z"
            fill="var(--palette-default-active, #1434CB)" />
        <path fill-rule="evenodd" clip-rule="evenodd"
            d="M107.019 92C105.075 92 103.5 93.5754 103.5 95.5189C103.5 96.2994 103.719 97.0641 104.133 97.726L107.5 103.113L110.867 97.726C111.281 97.0641 111.5 96.2994 111.5 95.5189C111.5 93.5754 109.925 92 107.981 92H107.019ZM101.5 95.5189C101.5 92.4709 103.971 90 107.019 90H107.981C111.029 90 113.5 92.4709 113.5 95.5189C113.5 96.6742 113.175 97.8063 112.563 98.786L107.5 106.887L102.437 98.786C101.825 97.8063 101.5 96.6742 101.5 95.5189Z"
            fill="var(--palette-default-active, #1434CB)" />
    </g>
    <g clip-path="url(#clip6_2917_92201)">
        <path fill-rule="evenodd" clip-rule="evenodd"
            d="M155.571 96.9324C155.524 97.2817 155.5 97.638 155.5 98C155.5 98.362 155.524 98.7184 155.571 99.0676L157.578 99.5551C158.254 99.7192 158.575 100.494 158.213 101.088L157.138 102.852C157.572 103.42 158.08 103.928 158.648 104.362L160.412 103.287C161.006 102.925 161.781 103.246 161.945 103.922L162.432 105.929C162.782 105.976 163.138 106 163.5 106C163.862 106 164.218 105.976 164.568 105.929L165.055 103.922C165.219 103.246 165.994 102.925 166.588 103.287L168.352 104.362C168.92 103.928 169.428 103.42 169.862 102.852L168.787 101.088C168.425 100.494 168.746 99.7192 169.422 99.5551L171.429 99.0676C171.476 98.7184 171.5 98.362 171.5 98C171.5 97.638 171.476 97.2817 171.429 96.9324L169.422 96.445C168.746 96.2808 168.425 95.5064 168.787 94.9123L169.862 93.1484C169.428 92.5805 168.92 92.0723 168.352 91.6385L166.588 92.7132C165.994 93.0751 165.219 92.7543 165.055 92.0783L164.568 90.0706C164.218 90.024 163.862 90 163.5 90C163.138 90 162.782 90.024 162.432 90.0706L161.945 92.0783C161.781 92.7543 161.006 93.0751 160.412 92.7132L158.648 91.6385C158.08 92.0723 157.572 92.5805 157.138 93.1484L158.213 94.9123C158.575 95.5064 158.254 96.2808 157.578 96.445L155.571 96.9324ZM162.5 97H164.5V99H162.5V97ZM166.5 98C166.5 99.6569 165.157 101 163.5 101C161.843 101 160.5 99.6569 160.5 98C160.5 96.3432 161.843 95 163.5 95C165.157 95 166.5 96.3432 166.5 98Z"
            fill="var(--palette-default-active, #1434CB)" />
    </g>
    <g clip-path="url(#clip7_2917_92201)">
        <path fill-rule="evenodd" clip-rule="evenodd"
            d="M190.5 94H192.5V97.1315L193.945 96.1679L195.055 97.8321L190.5 100.869V94Z"
            fill="var(--palette-default-active, #1434CB)" />
        <path fill-rule="evenodd" clip-rule="evenodd"
            d="M191.5 104C194.814 104 197.5 101.314 197.5 98C197.5 94.6863 194.814 92 191.5 92C188.186 92 185.5 94.6863 185.5 98C185.5 101.314 188.186 104 191.5 104ZM191.5 106C195.918 106 199.5 102.418 199.5 98C199.5 93.5817 195.918 90 191.5 90C187.082 90 183.5 93.5817 183.5 98C183.5 102.418 187.082 106 191.5 106Z"
            fill="var(--palette-default-active, #1434CB)" />
    </g>
    <g clip-path="url(#clip8_2917_92201)">
        <path fill-rule="evenodd" clip-rule="evenodd"
            d="M133.5 106C130.186 106 127.5 103.314 127.5 100C127.5 96.6863 130.186 94 133.5 94H139.086L136.793 91.7071L138.207 90.2929L142.207 94.2929L142.914 95L142.207 95.7071L138.207 99.7071L136.793 98.2929L139.086 96H133.5C131.291 96 129.5 97.7909 129.5 100C129.5 102.209 131.291 104 133.5 104H139.5V106H133.5Z"
            fill="var(--palette-default-active, #1434CB)" />
    </g>
    <g clip-path="url(#clip9_2917_92201)">
        <path fill-rule="evenodd" clip-rule="evenodd"
            d="M191 63.9691C191.173 64.1081 191.342 64.2646 191.5 64.4383C191.658 64.2646 191.827 64.1081 192 63.9691C192.772 63.3517 193.737 63 194.5 63C197.632 63 199.5 65.5314 199.5 68C199.5 70.4419 197.974 72.3201 196.409 73.6901C195.612 74.3872 194.759 74.9926 193.998 75.5077C193.739 75.6831 193.497 75.8443 193.271 75.9942L193.271 75.9943C192.81 76.3009 192.419 76.5609 192.1 76.8L191.5 77.25L190.9 76.8C190.581 76.5609 190.19 76.3009 189.729 75.9942C189.503 75.8443 189.261 75.6831 189.002 75.5077C188.241 74.9926 187.388 74.3872 186.591 73.6901C185.026 72.3201 183.5 70.4419 183.5 68C183.5 65.5314 185.368 63 188.5 63C189.263 63 190.228 63.3517 191 63.9691ZM185.5 68C185.5 66.4686 186.632 65 188.5 65C189.167 65 190.7 65.4 191.5 67C192.3 65.4 193.833 65 194.5 65C196.368 65 197.5 66.4686 197.5 68C197.5 69.5581 196.526 70.9299 195.091 72.1849C194.388 72.8003 193.616 73.3512 192.877 73.8516C192.66 73.9982 192.441 74.144 192.226 74.2869L192.226 74.2871L192.226 74.2872C191.975 74.4544 191.729 74.6177 191.5 74.7741C191.271 74.6178 191.026 74.4545 190.774 74.2874L190.774 74.2873L190.774 74.2872L190.774 74.2871L190.773 74.2867C190.559 74.1438 190.34 73.9981 190.123 73.8516C189.384 73.3512 188.612 72.8003 187.909 72.1849C186.474 70.9299 185.5 69.5581 185.5 68Z"
            fill="var(--palette-default-active, #1434CB)" />
    </g>
    <rect x="85" y="21.5" width="130" height="97" rx="4.5" stroke="var(--palette-default-surface-2, #F0F0F0)" />
    <defs>
        <clipPath id="clip0_2917_92201">
            <rect width="16" height="16" fill="var(--palette-default-surface-1, white)"
                transform="translate(99.5 34)" />
        </clipPath>
        <clipPath id="clip1_2917_92201">
            <rect width="16" height="16" fill="var(--palette-default-surface-1, white)"
                transform="translate(155.5 34)" />
        </clipPath>
        <clipPath id="clip2_2917_92201">
            <rect width="16" height="16" fill="var(--palette-default-surface-1, white)"
                transform="translate(183.5 34)" />
        </clipPath>
        <clipPath id="clip3_2917_92201">
            <rect width="16" height="16" fill="var(--palette-default-surface-1, white)"
                transform="translate(99.5 62)" />
        </clipPath>
        <clipPath id="clip4_2917_92201">
            <rect width="16" height="16" fill="var(--palette-default-surface-1, white)"
                transform="translate(127.5 62)" />
        </clipPath>
        <clipPath id="clip5_2917_92201">
            <rect width="16" height="16" fill="var(--palette-default-surface-1, white)"
                transform="translate(99.5 90)" />
        </clipPath>
        <clipPath id="clip6_2917_92201">
            <rect width="16" height="16" fill="var(--palette-default-surface-1, white)"
                transform="translate(155.5 90)" />
        </clipPath>
        <clipPath id="clip7_2917_92201">
            <rect width="16" height="16" fill="var(--palette-default-surface-1, white)"
                transform="translate(183.5 90)" />
        </clipPath>
        <clipPath id="clip8_2917_92201">
            <rect width="16" height="16" fill="var(--palette-default-surface-1, white)"
                transform="translate(127.5 90)" />
        </clipPath>
        <clipPath id="clip9_2917_92201">
            <rect width="16" height="16" fill="var(--palette-default-surface-1, white)"
                transform="translate(183.5 62)" />
        </clipPath>
    </defs>
</svg>